<svg id="Calque_1" data-name="Calque 1" xmlns="http://www.w3.org/2000/svg" viewBox="0 0 552.54 154.71"><defs><style>.cls-1{fill:#fff;}</style></defs><title>brush</title><path class="cls-1" d="M22.1,375.34q0-77.36,0-154.71H574.64q0,77.36,0,154.71Zm119.71-25.26h-6.95c.38.7.55,1.26.7,1.25,2-.07,4-.2,6-.39.09,0,.12-.63.18-1l2.33,1.69,2.29-1.85C144,348.59,143.75,348.61,141.81,350.08Zm267.06-34.33.88-.61c1.28.65,2.16,1.43,3.09,1.5,2.4.19,4.83.06,7.61.06l-1.69,7.37,2.1-2.92,2.92,6.85,2.73-4.74c-3.47-.58-4.79-1.6-4.68-3.72s.4-4,.64-6.3l1.86,2,3.08-4.41,1.23,2.25,1.08-1.66,1.27,1.95,3.07-.84,2.42,3.9,1.49-4.59c2.61,2.39,3.22-.43,4.48-1.46,2.24.25,4.56.33,4.07,3.64,0,.18,1.19.54,1.75.78l1-3.46.69,0,2.08,6.62c.63-3.18-.39-6.15,2.26-7.34v-2.37l4.34.34-.1.3,2.38-.5,1.49,2.2c.78-.79,2.49,1.12,3-1.07.08-.4,1.85-2.5,2.32-.52,1.39,0,2.51,0,3.62,0,.4,0,1,.51,1.14.38,2.12-1.88,4.39-.42,6.6-.46a11.43,11.43,0,0,0,4.32-.91,13.05,13.05,0,0,1,9.67-.79,16.79,16.79,0,0,0,2.84.53c.19,0,.42-.21.83-.44l-2.35-1.84a42.11,42.11,0,0,0,4.38.28c3-.15,6-.75,8.94-.58,3.91.22,7.78,1.25,11.69,1.46a102.65,102.65,0,0,0,10.42-.41v-.85L522.49,303a9,9,0,0,1,4.75-1.12c4.77.47,9.5,1.25,14.26,1.76a9,9,0,0,0,2.91-.71l.17-1.07L531.41,297c3.82-3.65,8-1,11.83-2a37.42,37.42,0,0,1-15.4-7.37l9.23,1.16-1.66-3.46,11.2,1.75.1-.53L544,285.35l.13-.74,7.7.55c.1-2.8,2.47-1,3.82-1.42l-7.37-3.83.29-.68c1.12.22,2.24.44,3.35.68.9.19,1.79.41,2.68.62l.08-.68c-5.46-2.37-11.42-3.76-16.12-7.66l.26-.78,5.89,1.33.22-.61-3.6-1.73a25.44,25.44,0,0,1,4.71-.19c1.39.2,2.9,2.51,3.43-.11,2.5.34,4.75.56,7,1s4,3.14,6.74,1.66a24.05,24.05,0,0,0-9.69-6.38c-7.55-2.78-15.24-5.2-22.89-7.7-2.77-.91-5.69-1.39-8.38-2.49-2.48-1-5.91.13-7.43-3.12-1.75,1.13-2.64-1-3.92-1.08-2.29-.08-2.64-1.42-2.55-3.29-5.57.16-11,.75-16.06-2.28a8.79,8.79,0,0,1-2.85.55c-5.23-.58-10.43-1.37-15.65-2a6.21,6.21,0,0,0-3,.63c-2.07.91-7.67.2-8.93-1.12l1.09-3.71a27.45,27.45,0,0,0,3.69,1.76c1,.32,2.19,0,3.22.31,2.51.68,4.62.73,5.35-2.42-3.16-1.09-3.18-1.08-4.32,1.35l-.5-1.28-10.57-1.33c-2,2.4-3,2.52-3.64,1.24H445.33l-.11-1.58a9,9,0,0,0-1.46.51c-2.44,1.42-4.83.86-7.29,0a22.9,22.9,0,0,0-6.08-1.62,49.36,49.36,0,0,0-10.4.3c-6.3,1-12.58.69-18.87.41-1.24-.06-2.88-1.34-3.61-.89-3.61,2.24-7.56.84-11.29,1.49-2.62.46-5.68-.39-7.08,3.36,1.2-3-.61-3.76-2.61-3.76a37,37,0,0,0-6.25.87c-2.42.42-5-1.33-7.29.46-.15-.22-.26-.55-.46-.64-1.78-.76-3.68-2.64-5,.61L356,238c-.89.87-1.62,2.12-2.25,2.07a8.59,8.59,0,0,1-4-1.42c-1.51-1-3.58-1.14-4.05.45-.65,2.16-1.8,1.24-3.09,1.19s-3.15.11-3.5.82c-1,2-2.47,2.22-4.21,2-3.45-.35-7-2.23-10.14,1-.22.22-1-.12-1.51-.16a18.31,18.31,0,0,0-2.72-.17c-3.22.21-6.43.5-9.65.76a5,5,0,0,1-2.26.83c-4.75.13-9.63-.47-14.22.43-4.21.82-8.38-1-12.43.6-.28.11-.67-.15-1-.14-.88,0-1.76.08-2.62.19-.58.08-1.18.47-1.72.4-5-.67-10-1.6-15-.42-1.06.24-2.15.32-3.45.5V244c-.87.54-1.16,1.34-1.72,1.83-.88.77-1.89,1.79-2.93,1.9-2.44.26-5-.28-7.39.14a12.61,12.61,0,0,0-6.07,2.54c-1.63,1.45-2.66,1.61-4.22.36-1.22-1-2.43-1.72-4-.44-1.23,1-2.41.58-3.09-.75s-1.1-2.76-1.7-4.11a24.33,24.33,0,0,0-1.24-2.18c-1.45.94-2.88,1.58-4.12-.31-.27.29-.79.6-.77.88a18.34,18.34,0,0,0,.51,2.77c.38,1.66.79,3.32,1.19,5l-.76.19c-.16-.27-.31-.77-.49-.78-2-.13-4.06.52-5.64-1.31-.09-.1-.68.09-.92.29a4.56,4.56,0,0,1-5.77.2,5.1,5.1,0,0,0-6.51.21,3.64,3.64,0,0,1-4.55.32c-1.83-1.23-3.39-.81-4.49,1.22-1.46-.89-2.86-1.73-4.45,1l-.64-2.32-.55,1.28a20.71,20.71,0,0,1-2.6-.15c-.85-.15-1.72-.82-2.5-.7a37.75,37.75,0,0,0-8.21,1.75c-2.79,1.11-3.73.16-4.25-2.34,0-.22-1.38-.51-1.6-.28-1.36,1.44-2.57,3-4.09,4.88l-2.17-4.3c-1.81.83-3.81,1.79-5.86,2.65-.8.34-1.83.84-2.53.6-3.71-1.26-5.85,2.07-8.53,3.22-4.19,1.79-5.18,2.51-8.9-.37l1.1-2.15-3-1.24c-1.25,1.83-.51,4.83-3.72,4.73-.19,2.81-3.49,1.45-4.09,2.9l-3.7-2.61,1-1.78-5.43-1.31c-.94-5.45-.94-5.45-2.17-4.83.08,1.79.8,4.13.1,4.69-1.57,1.24-3.84,1.6-6.27,2.47l2.52-3.31c-1.67,0-2.77-.07-3.85,0a2.35,2.35,0,0,0-1.6.68,26.6,26.6,0,0,0-1.6,3.29l-.69-.24-.71-2.52-5.13,2.75.54,1.47-.43.21-1.36-1.72-3.15,3.35-3.71,3.94c-1-1.51-4.49.33-4-3.08l-4.35.26,1.38,3.7a2.94,2.94,0,0,1-2.17-.82c-.42-.39-.67-1.14-1.13-1.27s-1.3.47-1.32.78a3.55,3.55,0,0,0,.56,2.17c.94,1.28,2.08,2.42,3.14,3.61l-.44.75c-.7-.06-1.83.12-2-.21-1.08-2-2.4-.95-3.6-.4s-3.19.67-3.24,2.82a6.35,6.35,0,0,1-1.4.27l.68-2.06c-.77.24-1.17.39-1.58.48-1.48.34-3.32,1.38-4.37.85-2.08-1.06-3-.77-3.59,1.3-2.11-.34-2-.28-3.4,1.37-.35.43-1.5.82-1.82.59-1.95-1.42-3.09.3-3.9,1.26s-.47,2.31.55,3.64,2.23,3.29.92,5.63l-4-4.25-2,6.23,1.06,1.76-3.43-.41c1.86,2.84.13,4.15-1.48,5.51-.1-.48-.12-1.33-.32-1.37a18.14,18.14,0,0,0-4.09-.54,8.22,8.22,0,0,0-2.46.84l2.13,3.19a13.08,13.08,0,0,0-1.17,2.13,5.9,5.9,0,0,0,0,1.82l-.87,0-.38-3.39h-4v3l3-1.49.21.5-2.73,1.32,3.81,4.62c-.61.33-1,.68-1.36.71-2,.16-4.07.16-6.09.37a7.07,7.07,0,0,0-2,.87c.72.73-.17,2.34,1.55,2.61a6.52,6.52,0,0,1,2.07,1.12l3.16-1.6c.82,1.79,2.26,3.39,2,4.57-.83,3.35,1,5.7,2.18,8.34-.77,1.45-2.94,2.69-.21,4.65A37.75,37.75,0,0,0,37,331.74c-1,1.16-1.81,2.47-.25,4,.72.73.9,2,1.56,3.57l3.69-.33.73,1.07-3.55,3.68c4.38.72,4.38.72,2.35,3.51-1.11-1-9,1.92-12.56,4.53l7.92-.86-.06.52L30,355.38l-3.45,1.06.19.85,18.29-2.69.09.64-2.51.92a2.15,2.15,0,0,0,1.73.74c2.28-.28,4.56-.61,6.83-1,4.4-.71,8.81-1.4,13.2-2.19,2.15-.39,4.26-1,7.06-1.61,1.43,1.09,10.7-.17,11.69-2.7L85.54,352,78,353.42c2.1,1.63,6.8.93,7.74-.75.09-.15-.16-.49-.24-.74L88,353.09l.09-1.81c2.32.84,4.62,1.8,6.63-.64.27-.32,1.51-.07,2.19.2,2.66,1.07,5-.78,7.47-.87.2,0,.35-1.29.52-2l.69-.28,2.45,6.5L94,356.42c1.79,1.66,3.53,1.46,5.45.72a17.87,17.87,0,0,1,4.65-1.21,60.41,60.41,0,0,1,6.41.07l.41-2.52c-1.89.06-1.12-1.37-1-2.11.29-1.7.86-3.36,1.48-5.64l4.23,5.86,2.22-1.91-2.44-.37,6.64-4.74a2.09,2.09,0,0,1-.1,1.55c-.71,2-1.77,4.06-.53,6.14.32.54,1.49.57,2.28.84l.21-.67L122,351.26l4.5-2.68-1.82-1.14,1.3-1.94c1.43.54,2.76,1.56,3.9,1.37,2.39-.4,4.62-1.82,7-2.11,4.49-.55,9-.7,13.46-1.66a34.86,34.86,0,0,1,9.16-1c2.63.15,4-.09,4.85-2.78l2.71.85-1.9,1c7-.84,13.91-2,21-2.1a1.56,1.56,0,0,0-1.05-.5,2.35,2.35,0,0,1-.64-.46l.11-.73c4.65,3.3,9,.59,13.36.17l-.64-2.44c4.35,3.38,6.37,3.53,8.76,1.14,3.33,1.59,6.47,1.2,9.73-.53L212.65,334l4.38-.39,1,2.45c.64-.06,1.17-.09,1.69-.17,3.33-.48,6.83-.5,9.94-1.61,2.06-.73,3.09-1.32,3.65,1.52l6.4-2.43a57.2,57.2,0,0,0,6.74.47c4.34-.18,8.67-.71,13-1,5.88-.35,11.77-.54,17.65-.9a8.12,8.12,0,0,0,2.35-1c3.11-.42,6.48.55,9.33-1.22l-.26-1.18-9,2.41-3.42-3,6.07-1.43a8.6,8.6,0,0,0,8.28-1.42l.48.8c1.26-.29,2.59-.82,2.73-.6,1.53,2.4,3,1.5,4.69.24a25.49,25.49,0,0,1,2.4-1.4h-4.44l-.29-.8,5.17-2.65L299,318l.56-.76c1,.25,2,.54,3,.73.66.13,1.48.39,2,.13,2.68-1.37,5,.2,8.21.43a14.37,14.37,0,0,0-1.89,1.43,5.59,5.59,0,0,0-.62,1.25c.46.21,1.09.72,1.35.58,2.58-1.49,5.54-.77,8.12-1.46,2.38-.64,2,.32,2,2a27,27,0,0,1,3.77-2c1.6-.53,3.39-.52,4.93-1.16,3-1.23,5.62.1,6,3.29a32.09,32.09,0,0,1,0,3.37l-.35-.31,5.56-8.82.57.27.21,1.81c2.5-2.29,3.81-1.94,4.88,1a8.5,8.5,0,0,1,2.1.19c.37,2.42,2.3,1.13,3.43,1.37a16.25,16.25,0,0,0,4.16-.14l-2.15,7.39,4-.38-2.78-1.17,5.05-6.33-4.23-3.21.18-1c2.13,0,4.32-.33,6.37.08a7.82,7.82,0,0,0,7.93-2.42l2,3.41c.76,0,2.2-.43,3.08.09,2.19,1.3,4.08,1.37,6.08-.17.45-.35,1.21-.9,1.49-.75,3.38,1.84,6.79-.69,10.21.14,1.77.43,3.73.08,5.65.08l-.14,2.51.5,0,.86-2.32,7.78-1.6Zm-361.38,44-1.65,5.35L72.6,361c.94-3.93-2.78-2.67-3.92-4.71l8.19-1.78-.24-.88-9.48,1.69.75,4.57-3.66-1.3-.3.72,1.32.63-.07.57-8.8,1.13-.13-.88c.85-.2,1.71-.35,2.54-.62s1.61-.63,2.58-1H56.11L56,358l9.65-1.62-.17-.95L45.9,358.64l.1.68Zm141.42-12.92c4-.16,8.41,1.41,10.55-3.66l-19,1.7c2.74,3.76,5.62,1.14,8.41,0ZM39.86,363l.37,3.41c3.18-1.7,3-4.51,3.49-7.47l-9.93,2.13.88,2.08-2.55,1.27C35.56,366.52,36.89,362.56,39.86,363Zm114-13.85c-.64-1.39-3.38-1.48-6.68.48,2.74.73,4.93,1.61,7.19,1.83,1.6.15,3.3-.54,4.92-1,1.27-.33,4.2.67,2.24-2.57-.09-.15.31-.59.58-1.06l-4.89,1,.13,1.23Zm-74.06,6.69.2,2.59-5.32-.66a2.16,2.16,0,0,0-.32.9,20.33,20.33,0,0,0,.24,2.35c.8-.22,1.58-.5,2.39-.65,1.35-.24,2.71-.41,4.07-.56.4,0,.86.26,1.22.16,1.65-.49,3.28-1.08,4.92-1.63l.48.73-.2-4.37C85.4,357.79,82.68,356.83,79.76,355.85Zm131.37-10.62c1.59-4.24,5.74-2,8.36-3.85l-15.33,1.12,0,.74,2-.23-.32,2.2,4-1.1Zm-32.36.91-.06-.5-5.48-1.71-2.86.88.41,3.31c.82-.22,2.87-2.28,2.41,1.14l3.6-1.44-2.33-1.14Zm74.55-7.69L242,339.51l0,.26,2.08.39-2.1,1.93c2-.1,3.62-1,5.21-.92C250.33,341.31,251.27,341.14,253.33,338.45Zm1.45-.63-.22.9c.77.54,2.1,1,2.19,1.62.29,2,1.26,1.84,2.51,1.16,2.08-1.12,4.1-2.35,6.14-3.54l-.17-.74C261.81,338.64,258.34,339.17,254.78,337.83ZM272,340.4l4.58-.92-.77-2.82-.57,1.69-4.06-1.69ZM40.22,357.77l-.12-1.3-11,1.76.09.72Zm265-35.58a23.26,23.26,0,0,0-2.69,1.8,8.5,8.5,0,0,0-1.24,1.85c.63.15,1.25.33,1.88.44s1.41.19,1.74.23Zm5.26,4.43v3.6l3.31-1.29Z" transform="translate(-22.1 -220.63)"/><path d="M279.39,330.92a7.43,7.43,0,0,1-2.33,1c-5.88.36-11.77.55-17.65.9-4.34.26-8.67.78-13,1a57.2,57.2,0,0,1-6.74-.47l-6.4,2.43c-.56-2.85-1.59-2.25-3.65-1.52-3.11,1.11-6.61,1.13-9.94,1.61-.52.07-1,.11-1.69.17l-1-2.45-4.38.39,3.13,1.75c-3.26,1.74-6.4,2.13-9.73.53-2.39,2.39-4.41,2.25-8.76-1.14l.64,2.44c-4.32.42-8.72,3.13-13.36-.17l-.11.73a2.35,2.35,0,0,0,.64.46,1.56,1.56,0,0,1,1.05.5c-7,.1-14,1.26-21,2.1l1.9-1-2.71-.85c-.87,2.69-2.22,2.93-4.85,2.78a34.86,34.86,0,0,0-9.16,1c-4.46,1-9,1.1-13.46,1.66-2.38.29-4.61,1.72-7,2.11-1.13.19-2.47-.83-3.9-1.37l-1.3,1.94,1.82,1.14-4.5,2.68,1.84,1.17-.21.67c-.78-.27-2-.3-2.28-.84-1.25-2.08-.19-4.13.53-6.14a2.09,2.09,0,0,0,.1-1.55l-6.64,4.74,2.44.37-2.22,1.91-4.23-5.86c-.62,2.28-1.18,3.94-1.48,5.64-.13.74-.9,2.16,1,2.11l-.41,2.52a60.41,60.41,0,0,0-6.41-.07,17.87,17.87,0,0,0-4.65,1.21c-1.92.74-3.66.94-5.45-.72l14.06-2.2-2.45-6.5-.69.28c-.17.69-.32,2-.52,2-2.51.09-4.81,1.94-7.47.87-.68-.27-1.92-.53-2.19-.2-2,2.44-4.31,1.48-6.63.64L88,353.09l-2.51-1.16.05.05-2.39-2.56c-1,2.53-10.26,3.79-11.69,2.7-2.79.64-4.91,1.22-7.06,1.61-4.39.79-8.79,1.48-13.2,2.19-2.27.36-4.55.7-6.83,1a2.15,2.15,0,0,1-1.73-.74l2.51-.92-.09-.64-18.29,2.69-.19-.85L30,355.38l6.73-3.92.06-.52-7.92.86c3.52-2.6,11.45-5.5,12.56-4.53,2-2.79,2-2.79-2.35-3.51l3.55-3.68L41.95,339l-3.69.33c-.66-1.58-.84-2.85-1.56-3.57-1.56-1.58-.76-2.88.25-4a37.75,37.75,0,0,1,3.73-3.31c-2.72-2-.55-3.21.21-4.65-1.16-2.64-3-5-2.18-8.34.29-1.17-1.14-2.77-2-4.57l-3.16,1.6a6.52,6.52,0,0,0-2.07-1.12c-1.73-.27-.84-1.88-1.55-2.61a7.07,7.07,0,0,1,2-.87c2-.21,4.06-.21,6.09-.37.38,0,.74-.38,1.36-.71l-3.81-4.62,2.73-1.32-.21-.5-3,1.49v-3h4l.38,3.39.87,0a5.9,5.9,0,0,1,0-1.82,13.08,13.08,0,0,1,1.17-2.13l-.08-.06L42.75,303c1.67-.13,5.33-3.3,5.78-5,.07-.29-.14-.65-.28-1.2l-.71,1.74-1.16-2.41-.08.11c1.61-1.36,3.34-2.67,1.48-5.51l3.43.41-1.06-1.76,2-6.23,4,4.25c1.31-2.34.13-4.27-.92-5.63s-1.36-2.68-.55-3.64,1.95-2.69,3.9-1.26c.32.23,1.46-.15,1.82-.59,1.35-1.66,1.29-1.71,3.4-1.37.57-2.07,1.51-2.36,3.59-1.3,1,.53,2.89-.51,4.37-.85.41-.1.81-.25,1.58-.48l-.68,2.06a6.35,6.35,0,0,0,1.4-.27c.05-2.15,1.92-2.22,3.24-2.82s2.52-1.56,3.6.4c.19.34,1.32.16,2,.21l.44-.75c-1.06-1.19-2.2-2.33-3.14-3.61a3.55,3.55,0,0,1-.56-2.17c0-.31,1-.88,1.32-.78s.71.87,1.13,1.27a2.94,2.94,0,0,0,2.17.82l-1.38-3.7,4.35-.26c-.52,3.41,3,1.57,4,3.08l3.71-3.94,3.15-3.35,1.36,1.72.43-.21-.54-1.47,5.13-2.75.71,2.52.69.24a26.6,26.6,0,0,1,1.6-3.29,2.35,2.35,0,0,1,1.6-.68c1.08-.1,2.18,0,3.85,0l-2.52,3.31c2.44-.88,4.71-1.23,6.27-2.47.7-.56,0-2.89-.1-4.69,1.22-.63,1.22-.63,2.17,4.83l5.43,1.31-1,1.78,3.7,2.61c.6-1.45,3.9-.09,4.09-2.9,3.21.1,2.47-2.9,3.72-4.73l3,1.24-1.1,2.15c3.71,2.89,4.71,2.17,8.9.37,2.68-1.15,4.82-4.48,8.53-3.22.7.24,1.73-.26,2.53-.6,2-.86,4.05-1.82,5.86-2.65l2.17,4.3c1.53-1.86,2.74-3.44,4.09-4.88.22-.23,1.55.07,1.6.28.53,2.5,1.46,3.45,4.25,2.34a37.75,37.75,0,0,1,8.21-1.75c.78-.12,1.65.55,2.5.7a20.71,20.71,0,0,0,2.6.15l.55-1.28.64,2.32c1.59-2.78,3-1.94,4.45-1,1.1-2,2.66-2.44,4.49-1.22a3.64,3.64,0,0,0,4.55-.32,5.1,5.1,0,0,1,6.51-.21,4.56,4.56,0,0,0,5.77-.2c.23-.2.83-.39.92-.29,1.58,1.83,3.69,1.18,5.64,1.31.18,0,.33.51.49.78l.76-.19c-.4-1.66-.81-3.31-1.19-5a18.34,18.34,0,0,1-.51-2.77c0-.27.5-.58.77-.88,1.24,1.89,2.67,1.24,4.12.31a24.33,24.33,0,0,1,1.24,2.18c.6,1.36,1,2.8,1.7,4.11s1.86,1.76,3.09.75c1.56-1.27,2.77-.54,4,.44,1.55,1.25,2.59,1.09,4.22-.36a12.61,12.61,0,0,1,6.07-2.54c2.4-.41,5,.13,7.39-.14,1-.11,2.05-1.13,2.93-1.9.56-.49.85-1.29,1.72-1.83v2.93c1.29-.18,2.39-.25,3.45-.5,5.06-1.17,10-.25,15,.42.55.07,1.14-.32,1.72-.4.87-.11,1.75-.16,2.62-.19.34,0,.74.25,1,.14,4.05-1.58,8.22.22,12.43-.6,4.59-.9,9.47-.3,14.22-.43a5,5,0,0,0,2.26-.83c3.22-.26,6.43-.55,9.65-.76a18.31,18.31,0,0,1,2.72.17c.52,0,1.29.38,1.51.16,3.14-3.19,6.69-1.31,10.14-1,1.74.18,3.22-.08,4.21-2,.35-.7,2.3-.87,3.5-.82s2.44,1,3.09-1.19c.48-1.59,2.55-1.47,4.05-.45a8.59,8.59,0,0,0,4,1.42c.63,0,1.35-1.2,2.25-2.07l1.54,1.92c1.33-3.25,3.22-1.37,5-.61.21.09.31.42.46.64,2.32-1.79,4.87,0,7.29-.46a37,37,0,0,1,6.25-.87c2,0,3.81.73,2.61,3.76,1.4-3.75,4.46-2.9,7.08-3.36,3.73-.66,7.68.75,11.29-1.49.73-.45,2.37.84,3.61.89,6.29.28,12.57.58,18.87-.41a49.36,49.36,0,0,1,10.4-.3,22.9,22.9,0,0,1,6.08,1.62c2.46.86,4.85,1.42,7.29,0a9,9,0,0,1,1.46-.51l.11,1.58h10.79c.68,1.28,1.64,1.15,3.64-1.24l10.57,1.33.5,1.28c1.13-2.43,1.15-2.43,4.32-1.35-.73,3.15-2.84,3.1-5.35,2.42-1-.28-2.21,0-3.22-.31a27.45,27.45,0,0,1-3.69-1.76l-1.09,3.71c1.26,1.32,6.85,2,8.93,1.12a6.21,6.21,0,0,1,3-.63c5.23.59,10.43,1.38,15.65,2a8.79,8.79,0,0,0,2.85-.55c5,3,10.49,2.45,16.06,2.28-.09,1.87.25,3.21,2.55,3.29,1.28,0,2.17,2.2,3.92,1.08,1.53,3.25,5,2.1,7.43,3.12,2.68,1.1,5.61,1.59,8.38,2.49,7.65,2.5,15.34,4.93,22.89,7.7a24.05,24.05,0,0,1,9.69,6.38c-2.77,1.48-4.5-1.26-6.74-1.66s-4.46-.62-7-1c-.54,2.62-2,.31-3.43.11a25.44,25.44,0,0,0-4.71.19l3.6,1.73-.22.61-5.89-1.33-.26.78c4.7,3.9,10.66,5.29,16.12,7.66l-.08.68c-.89-.21-1.79-.42-2.68-.62-1.12-.24-2.24-.45-3.35-.68l-.29.68,7.37,3.83c-1.35.45-3.72-1.38-3.82,1.42l-7.7-.55-.13.74,2.75,1.21-.1.53-11.2-1.75,1.66,3.46-9.23-1.16a37.42,37.42,0,0,0,15.4,7.37c-3.81,1-8-1.66-11.83,2l13.17,4.83-.17,1.07a9,9,0,0,1-2.91.71c-4.76-.51-9.5-1.29-14.26-1.76a9,9,0,0,0-4.75,1.12l7.27,2.41v.85a102.65,102.65,0,0,1-10.42.41c-3.91-.22-7.78-1.24-11.69-1.46-3-.17-6,.43-8.94.58a42.11,42.11,0,0,1-4.38-.28l2.35,1.84c-.41.22-.64.46-.83.44a16.79,16.79,0,0,1-2.84-.53,13.05,13.05,0,0,0-9.67.79,11.43,11.43,0,0,1-4.32.91c-2.21,0-4.48-1.42-6.6.46-.15.13-.74-.36-1.14-.38-1.11-.06-2.23,0-3.62,0-.46-2-2.23.12-2.32.52-.46,2.19-2.17.27-3,1.07l-1.49-2.2-2.38.5.1-.3-4.34-.34v2.37c-2.65,1.19-1.63,4.16-2.26,7.34l-2.08-6.62-.69,0-1,3.46c-.56-.24-1.78-.61-1.75-.78.5-3.32-1.83-3.39-4.07-3.64-1.26,1-1.87,3.86-4.48,1.46l-1.49,4.59-2.42-3.9-3.07.84-1.27-1.95-1.08,1.66-1.23-2.25-3.08,4.41-1.86-2c-.24,2.29-.54,4.29-.64,6.3s1.21,3.14,4.68,3.72L423.77,328l-2.92-6.85-2.1,2.92,1.69-7.37c-2.78,0-5.21.12-7.61-.06-.93-.07-1.81-.85-3.09-1.5l-.88.61a3.38,3.38,0,0,0-2.78-3.5,1.14,1.14,0,0,0-.92.3c-.14.14-.08.6,0,.84.32.62.72,1.19.92,1.52l2.78.8-7.78,1.6-.86,2.32-.5,0,.14-2.51c-1.93,0-3.89.35-5.65-.08-3.42-.83-6.82,1.7-10.21-.14-.28-.15-1,.4-1.49.75-2,1.55-3.89,1.47-6.08.17-.88-.52-2.32-.09-3.08-.09l-2-3.41a7.82,7.82,0,0,1-7.93,2.42c-2-.41-4.24-.08-6.37-.08l-.18,1,4.23,3.21-5.05,6.33,2.78,1.17-4,.38,2.15-7.39a16.25,16.25,0,0,1-4.16.14c-1.12-.25-3.06,1-3.43-1.37a8.5,8.5,0,0,0-2.1-.19c-1.08-3-2.38-3.31-4.88-1l-.21-1.81-.57-.27-5.56,8.82.35.31a32.09,32.09,0,0,0,0-3.37c-.34-3.2-3-4.52-6-3.29-1.54.64-3.33.63-4.93,1.16a27,27,0,0,0-3.77,2c0-1.68.38-2.64-2-2-2.58.69-5.54,0-8.12,1.46-.25.15-.89-.37-1.35-.58a5.59,5.59,0,0,1,.62-1.25,14.37,14.37,0,0,1,1.89-1.43c-3.24-.24-5.53-1.8-8.21-.43-.51.26-1.33,0-2-.13-1-.2-2-.48-3-.73L299,318l2.07,2.62-5.17,2.65.29.8h4.44a25.49,25.49,0,0,0-2.4,1.4c-1.64,1.27-3.17,2.16-4.69-.24-.14-.22-1.47.31-2.73.6l-.49-.8a8.59,8.59,0,0,1-8.27,1.42L276,327.93l3.42,3Zm-7.63-11.59a3.68,3.68,0,0,0-.89-.69c-.87-.39-1.79-.67-2.69-1a19.89,19.89,0,0,0-.26,2.56,9.89,9.89,0,0,0,.39,1.93l-2.85-.16c0,.8-.3,2,.1,2.33.81.64,2.46,1.41,3,1,2.95-2.18,6-.86,9.06-.82,3.33,0,6.67-.53,10-.75,1-.07,2.2.39,3.12.08,1.16-.4,2.09-1,3.21.08.2.19,1-.26,1.51-.41-.28-.47-.45-1.21-.85-1.37a7.52,7.52,0,0,0-2.8-.56c-6.28.06-12.55.21-18.83.29a6.85,6.85,0,0,1-1.8-.48Zm8.85,1.36c1.84-.27,3.63-1.09,5-.62,2.71,1,2.66,1.25,3.53-2a30.79,30.79,0,0,1-3.5.28,35.47,35.47,0,0,1-3.6-.47ZM51.32,299.25l-4.09.73,2.57,1.93-.89,2.48,3.63,1.49Zm126.36,29,.46.56,3.3-1.84-.15.54,5.22.26C180.21,325.07,179.09,325.2,177.68,328.25ZM112.14,257.9c-3,2.13-2.94,2.6.09,4.23C115.22,259.59,115.22,259.59,112.14,257.9Zm109.63-9.46c1.31.92,2.44,2,2.71,1.86a12.33,12.33,0,0,0,2.28-2.59l-.73-1Zm71.33,70.18,1.11,1.47,4.61-.25C296.78,318.22,293.77,317.84,293.1,318.62Zm29.74.8,3.68-.3.53-.62L324.22,316ZM249,321.86l.23,3.48,3.69-2.35Z" transform="translate(-22.1 -220.63)"/><path d="M47.48,359.8,46,359.32l-.1-.68,19.62-3.19.17.95L56,358l.08,1.06h5.27c-1,.39-1.76.76-2.58,1s-1.69.42-2.54.62l.13.88,8.8-1.13.07-.57-1.32-.63.3-.72,3.66,1.3-.75-4.57,9.48-1.69.24.88-8.19,1.78c1.14,2,4.86.78,3.92,4.71l-26.76,4.2Z" transform="translate(-22.1 -220.63)"/><path d="M188.91,346.89V345c-2.79,1.1-5.67,3.71-8.41,0l19-1.7C197.31,348.3,192.93,346.72,188.91,346.89Z" transform="translate(-22.1 -220.63)"/><path d="M39.86,363c-3-.44-4.3,3.52-7.75,1.42l2.55-1.27-.88-2.08,9.93-2.13c-.45,3-.31,5.77-3.49,7.47Z" transform="translate(-22.1 -220.63)"/><path d="M153.83,349.16h3.49l-.13-1.23,4.89-1c-.26.47-.67.91-.58,1.06,2,3.23-1,2.24-2.24,2.57-1.63.42-3.32,1.11-4.92,1-2.26-.21-4.45-1.09-7.19-1.83C150.44,347.68,153.19,347.77,153.83,349.16Z" transform="translate(-22.1 -220.63)"/><path d="M79.76,355.85c2.91,1,5.63,1.94,7.69-1.12l.2,4.37-.48-.73c-1.64.55-3.27,1.13-4.92,1.63-.36.11-.82-.2-1.22-.16-1.36.14-2.72.32-4.07.56-.81.14-1.6.43-2.39.65a20.33,20.33,0,0,1-.24-2.35,2.16,2.16,0,0,1,.32-.9l5.32.66Z" transform="translate(-22.1 -220.63)"/><path d="M211.14,345.23l-1.35-1.14-4,1.1.32-2.2-2,.23,0-.74,15.33-1.12C216.88,343.18,212.73,341,211.14,345.23Z" transform="translate(-22.1 -220.63)"/><path d="M178.78,346.14l-4.31.53,2.33,1.14-3.6,1.44c.46-3.42-1.59-1.36-2.41-1.14l-.41-3.31,2.86-.88,5.48,1.71Z" transform="translate(-22.1 -220.63)"/><path d="M253.33,338.45c-2.06,2.69-3,2.86-6.21,2.72-1.58-.07-3.2.82-5.21.92l2.1-1.93-2.08-.39,0-.26Z" transform="translate(-22.1 -220.63)"/><path d="M254.78,337.83c3.56,1.35,7,.81,10.45-.59l.17.74c-2,1.18-4.06,2.41-6.14,3.54-1.24.67-2.22.81-2.51-1.16-.09-.64-1.43-1.09-2.19-1.62Z" transform="translate(-22.1 -220.63)"/><path d="M272,340.4l-.82-3.73,4.06,1.69.57-1.69.77,2.82Z" transform="translate(-22.1 -220.63)"/><path d="M40.22,357.77l-11,1.18-.09-.72,11-1.76Z" transform="translate(-22.1 -220.63)"/><path d="M41.56,298.29l-2.13-3.19a8.22,8.22,0,0,1,2.46-.84,18.14,18.14,0,0,1,4.09.54c.2,0,.22.9.32,1.37l.08-.11-3-.25-1.91,2.41Z" transform="translate(-22.1 -220.63)"/><path d="M85.48,351.94c.09.25.33.59.24.74-.94,1.67-5.64,2.37-7.74.75L85.54,352Z" transform="translate(-22.1 -220.63)"/><path d="M279.45,330.94l9-2.41.26,1.18c-2.85,1.77-6.22.81-9.34,1.21Z" transform="translate(-22.1 -220.63)"/><path d="M305.17,322.18l-.31,4.32c-.33,0-1-.11-1.74-.23s-1.25-.29-1.88-.44a8.5,8.5,0,0,1,1.24-1.85A23.26,23.26,0,0,1,305.17,322.18Z" transform="translate(-22.1 -220.63)"/><path d="M310.43,326.61l3.31,2.31-3.31,1.29Z" transform="translate(-22.1 -220.63)"/><path d="M141.72,350c-.06.34-.09,1-.18,1-2,.18-4,.32-6,.39-.15,0-.32-.55-.7-1.25h6.95Z" transform="translate(-22.1 -220.63)"/><path d="M141.81,350.08c1.94-1.48,2.2-1.49,4.54-.25l-2.29,1.85L141.72,350Z" transform="translate(-22.1 -220.63)"/><path class="cls-1" d="M271.76,319.33l-.64,2a6.85,6.85,0,0,0,1.8.48c6.28-.07,12.55-.23,18.83-.29a7.52,7.52,0,0,1,2.8.56c.4.16.57.9.85,1.37-.52.15-1.31.6-1.51.41-1.12-1-2-.47-3.21-.08-.92.31-2.08-.15-3.12-.08-3.34.23-6.68.79-10,.75-3.06,0-6.11-1.35-9.06.82-.5.37-2.15-.4-3-1-.4-.31-.09-1.52-.1-2.33l2.85.16a9.89,9.89,0,0,1-.39-1.93,19.89,19.89,0,0,1,.26-2.56c.9.32,1.82.6,2.69,1A3.68,3.68,0,0,1,271.76,319.33Z" transform="translate(-22.1 -220.63)"/><path class="cls-1" d="M41.47,298.23l1.91-2.41,3,.25,1.16,2.41.71-1.74c.14.55.35.91.28,1.2-.45,1.73-4.11,4.91-5.78,5Z" transform="translate(-22.1 -220.63)"/><path class="cls-1" d="M280.61,320.69l1.38-2.81a35.47,35.47,0,0,0,3.6.47,30.79,30.79,0,0,0,3.5-.28c-.87,3.26-.83,3-3.53,2C284.25,319.6,282.46,320.42,280.61,320.69Z" transform="translate(-22.1 -220.63)"/><path class="cls-1" d="M51.32,299.25l1.21,6.64-3.63-1.49.89-2.48L47.23,300Z" transform="translate(-22.1 -220.63)"/><path class="cls-1" d="M177.68,328.25c1.41-3,2.53-3.18,8.83-.48l-5.22-.26.15-.54-3.3,1.84Z" transform="translate(-22.1 -220.63)"/><path class="cls-1" d="M112.14,257.9c3.08,1.7,3.08,1.7.09,4.23C109.2,260.5,109.19,260,112.14,257.9Z" transform="translate(-22.1 -220.63)"/><path class="cls-1" d="M221.77,248.43l4.26-1.74.73,1a12.33,12.33,0,0,1-2.28,2.59C224.21,250.47,223.08,249.36,221.77,248.43Z" transform="translate(-22.1 -220.63)"/><path class="cls-1" d="M293.1,318.62c.67-.78,3.68-.39,5.71,1.21l-4.61.25Z" transform="translate(-22.1 -220.63)"/><path class="cls-1" d="M322.84,319.42l1.38-3.42L327,318.5l-.53.62Z" transform="translate(-22.1 -220.63)"/><path class="cls-1" d="M408.92,315.71l-2.78-.8c-.2-.33-.61-.9-.92-1.52-.12-.24-.18-.7,0-.84a1.14,1.14,0,0,1,.92-.3,3.38,3.38,0,0,1,2.78,3.5Z" transform="translate(-22.1 -220.63)"/><path class="cls-1" d="M249,321.86l3.92,1.13-3.69,2.35Z" transform="translate(-22.1 -220.63)"/></svg>