<?xml version="1.0" standalone="no"?>
<!DOCTYPE svg PUBLIC "-//W3C//DTD SVG 1.1//EN" "http://www.w3.org/Graphics/SVG/1.1/DTD/svg11.dtd" >
<svg>
<metadata>
Created by FontForge 20090914 at Tue Oct 17 09:45:22 2017
 By www-data
(c) 2002 Nate Piekos.  www.blambot.com
</metadata>
<defs>
<font id="WhoopAss" horiz-adv-x="1251" >
  <font-face 
    font-family="WhoopAss"
    font-weight="400"
    font-stretch="normal"
    units-per-em="2048"
    panose-1="2 11 6 3 5 3 2 2 2 4"
    ascent="1638"
    descent="-410"
    x-height="1541"
    cap-height="1548"
    bbox="-286.001 -560 1723 1730"
    underline-thickness="0"
    underline-position="0"
    unicode-range="U+0020-U+201D"
  />
<missing-glyph horiz-adv-x="1024" 
d="M128 0v1730h768v-1730h-768zM256 128h512v1474h-512v-1474z" />
    <glyph glyph-name=".notdef" horiz-adv-x="1024" 
d="M128 0v1730h768v-1730h-768zM256 128h512v1474h-512v-1474z" />
    <glyph glyph-name="space" unicode=" " horiz-adv-x="550" 
 />
    <glyph glyph-name="exclam" unicode="!" horiz-adv-x="632" 
d="M443 440c32.667 0 49 -16.333 49 -49v-341c0 -33.333 -16.333 -50 -49 -50h-394c-32.667 0 -49 16.667 -49 50v341c-0 32.667 16.333 49 49 49h394zM443 1546c32.667 0 49 -16.333 49 -49v-845c0 -32.667 -16.333 -49 -49 -49h-394c-32.667 0 -49 16.333 -49 49v845
c-0 32.667 16.333 49 49 49h394z" />
    <glyph glyph-name="quotedbl" unicode="&#x22;" horiz-adv-x="1403" 
d="M527 1551c33.333 0 50 -25.333 50 -76v-529c0 -50.667 -16.667 -76 -50 -76h-393c-32.667 0 -49 25.333 -49 76v529c0 50.667 16.333 76 49 76h393zM1128 1551c32.667 0 49 -25.333 49 -76v-529c0 -50.667 -16.333 -76 -49 -76h-393c-32.667 0 -49 25.333 -49 76v529
c0 50.667 16.333 76 49 76h393z" />
    <glyph glyph-name="numbersign" unicode="#" horiz-adv-x="1656" 
d="M638 1548c32.667 0 49.001 -16.334 49.001 -49.001v-184c0 -36.667 15 -55.334 45 -56.001h52c18 -0.666992 35.667 -0.666992 53 0c32 1.33301 48 21.333 48 60v180c0 32.667 16.333 49 49 49h393c32.667 0 49 -16.333 49 -49v-194c0 -31.333 12.667 -46.666 38 -45.999
s54.666 -2.33301 87.999 -9c46 -8.66699 69 -21.667 69 -39v-336c0 -32 -52.333 -48 -157 -48c-26.667 -9.33301 -39.334 -27 -38.001 -53c0.666992 -24 13.334 -41.333 38.001 -52c104.667 0 157 -16.333 157 -49v-335c0 -31.333 -52.333 -47.666 -157 -48.999
c-25.333 0 -38 -12.667 -38 -38v-202c0 -32.667 -16.333 -49 -49 -49h-393c-32.667 -0 -49 16.333 -49 49v205c-4.66699 19.333 -16 31 -34 35h-117c-31.333 0 -47 -13.333 -47 -40v-200c0 -32.667 -16.333 -49 -49 -49h-393c-32.667 -0 -49 16.333 -49 49v207
c0 22 -13 33 -39 33c-104.667 0 -157 16.333 -157 49v335c-0 24.667 52.333 41 157 49c26.667 2 39.667 19.667 39 53c-0.666992 32.667 -13.667 50 -39 52c-104.667 9.33301 -157 25.333 -157 48v336c0 17.333 23 30.333 69 39c30.667 6 60 9 88 9
c25.333 0 38.333 13.333 39 40v100v100c0 32.667 16.333 49 49 49h393zM687.001 774.999c0.666992 -26.667 11.334 -43 32.001 -49c8 -2.66699 30.333 -4 67 -4s58.667 1 66 3c22.667 6 33.667 21.667 33 47c-0.666992 36.667 -33.334 55 -98.001 55
c-68 0 -101.333 -17.333 -100 -52z" />
    <glyph glyph-name="dollar" unicode="$" horiz-adv-x="1175" 
d="M1049 765c102.667 -82 154.002 -181.671 154.002 -299.004c0 -102 -41.333 -193 -124 -273c-70.667 -69.333 -159.667 -120 -267 -152v-151c0 -40 -16.667 -60 -50 -60h-393c-32.667 0 -49 20 -49 60v150c-140 42 -244.333 110.333 -313 205
c-10.667 14.667 -12.334 29 -5.00098 43c7.33301 12.667 17.666 22.334 30.999 29.001l344 163c18 8.66699 46.667 5.33398 86 -9.99902c48 -18 82 -27 102 -27c31.333 0 61.333 5.66699 90 17c37.333 14.667 56 35.334 56 62.001c0 52 -48.333 77.333 -145 76
c-62 -0.666992 -120.333 4.33301 -175 15c-119.333 24 -222 74.667 -308 152c-102 92 -153 195.667 -153 311c0 104.667 40.333 198.334 121 281.001c71.333 72 161 125.333 269 160v153c0 40 16.333 60 49 60h393c33.333 0 50 -20 50 -60v-153
c170.667 -54 287 -144 349 -270c5.33301 -11.333 8 -21.333 8 -30c0 -22 -15 -36.667 -45 -44l-362 -132c-26.667 -9.33301 -44.667 -10.666 -54 -3.99902l-31 22c-28.667 18.667 -66 28 -112 28c-30.667 0 -60.334 -5.66699 -89.001 -17c-37.333 -15.333 -56 -36 -56 -62
c0 -26.667 18.667 -47.334 56 -62.001c27.333 -11.333 57 -17 89 -17c75.333 -0.666992 160 -16.667 254 -48c96.667 -32 173.334 -70.667 230.001 -116z" />
    <glyph glyph-name="percent" unicode="%" horiz-adv-x="1479" 
d="M461 1151c-38.667 0 -71.832 -13.6689 -99.499 -41.002s-41.5 -60.333 -41.5 -99c0 -39.333 13.667 -72.666 41 -99.999s60.666 -41 99.999 -41c38.667 0 71.667 13.833 99 41.5s41 60.834 41 99.501c0 38 -13.833 70.833 -41.5 98.5s-60.5 41.5 -98.5 41.5z
M1050 685.998c-39.333 0 -72.666 -13.6709 -99.999 -41.0039s-41 -60.666 -41 -99.999s13.667 -72.666 41 -99.999s60.666 -41 99.999 -41c38.667 0 71.834 13.833 99.501 41.5s41.5 60.834 41.5 99.501s-13.833 71.834 -41.5 99.501s-60.834 41.5 -99.501 41.5z
M1155 1074.99c126.667 -26 230.668 -88.667 312.001 -188s122 -213.333 122 -342c0 -149.333 -52.5 -276.5 -157.5 -381.5s-232.167 -157.5 -381.5 -157.5c-139.333 0 -260.333 46.667 -363 140l-48 -95c-16.667 -33.333 -41.334 -50 -74.001 -50h-393
c-22 0 -33 7.33301 -33 22c0 7.33301 2.66699 16.666 8 27.999l217 429c-128.667 23.333 -234.5 84.833 -317.5 184.5s-124.5 215.167 -124.5 346.5c0 150 52.333 277.333 157 382s232 157 382 157c141.333 0 264 -48.667 368 -146l49 96c17.333 33.333 42 50 74 50h393
c21.333 0 32 -7.33301 32 -22c0 -7.33301 -2.66699 -16.666 -8 -27.999z" />
    <glyph glyph-name="ampersand" unicode="&#x26;" horiz-adv-x="1340" 
d="M99 740c15.333 14.667 15.334 29.001 0.000976562 43.001c-86.667 80 -130 176.333 -130 289c0 147.333 71.667 266.666 215 357.999c124 80 264.333 120 421 120c124 0 238.667 -26 344 -78c116.667 -57.333 201.667 -137 255 -239c6 -11.333 9 -21 9 -29
c0 -18 -14 -29.667 -42 -35l-375 -116c-24 -7.33301 -38 -10.666 -42 -9.99902c-6 0.666992 -24.333 8 -55 22c-26.667 12 -57.667 18 -93 18c-30.667 0 -60.334 -5.66699 -89.001 -17c-38 -15.333 -57 -36 -57 -62c0 -26.667 18.667 -47.334 56 -62.001
c28.667 -11.333 58.667 -17 90 -17l591 -1c32.667 0 49 -16.333 49 -49v-954c0 -32.667 -16.333 -49 -49 -49h-393c-32.667 0 -49 16.333 -49 49v93c-50 -9.33301 -100 -14 -150 -14c-154 -0 -293 37.333 -417 112c-146 88 -219 204.333 -219 349
c0 105.333 43.333 198.333 130 279zM606.001 439.001c51.333 0 85.333 3.00293 102 9.00293c32 11.333 47.667 37.666 47 78.999c-0.666992 47.333 -52 69.666 -154 66.999c-94 -2.66699 -141 -28 -141 -76c0 -26.667 18.667 -47.334 56 -62.001
c28.667 -11.333 58.667 -17 90 -17z" />
    <glyph glyph-name="quotesingle" unicode="'" horiz-adv-x="834" 
d="M562 1550c37.333 0 53.665 -16.334 48.998 -49.001l-69 -466c-5.33301 -36.667 -21.666 -55 -48.999 -55h-205c-34 -3.33301 -56.333 10.334 -67 41.001c-1.33301 2 -2 4 -2 6c0 4.66699 13 24 39 58c12.667 16.667 5.33398 25 -21.999 25h-68
c-32.667 0 -49 16.667 -49 50v341c0 32.667 16.333 49 49 49h394z" />
    <glyph glyph-name="parenleft" unicode="(" horiz-adv-x="821" 
d="M768 1548c13.333 0 24 -6.00098 32 -18.001s7 -22.333 -3 -31c-272 -242 -402.333 -481 -391 -717c10.667 -235.333 136.334 -474.333 377.001 -717c10 -10 10 -23.333 0 -40s-21.667 -25 -35 -25h-367c-23.333 0 -48.333 16.333 -75 49
c-198.667 242 -301.334 483.667 -308.001 725c-6 240.667 96.667 482.334 308 725.001c28.667 32.667 54.667 49 78 49h384z" />
    <glyph glyph-name="parenright" unicode=")" horiz-adv-x="821" 
d="M35 0c-14 0 -24.668 6.00195 -32.001 18.002c-8 11.333 -7 21.666 3 30.999c272 242 402.333 481 391 717c-11.333 236.667 -137 475.667 -377 717c-10 10 -10 23.333 0 40c9.33301 16.667 21 25 35 25h367c23.333 0 48.333 -16.333 75 -49
c198.667 -241.333 301.334 -483 308.001 -725c6 -242.667 -96.667 -484.334 -308 -725.001c-28.667 -32.667 -55 -49 -79 -49h-383z" />
    <glyph glyph-name="asterisk" unicode="*" horiz-adv-x="1200" 
d="M607 1512c26.667 27.333 50.665 40.999 71.998 40.999c14 0 27 -6 39 -18l308 -308c11.333 -11.333 17 -24 17 -38c0 -22 -13.333 -46.333 -40 -73l-60 -60c-22 -22 -22.667 -43.667 -2 -65l120 -120c11.333 -11.333 17 -23 17 -35s-5.66699 -23.667 -17 -35l-278 -278
c-11.333 -11.333 -23 -17 -35 -17c-11.333 0 -22.666 5.66699 -33.999 17l-122 122c-20 20 -40.333 19.667 -61 -1c-6.66699 -7.33301 -17 -18 -31 -32l-31 -31c-27.333 -26.667 -51.666 -40 -72.999 -40c-14 0 -27 6 -39 18l-307 308c-12 12 -18 25.333 -18 40
c0 20.667 13.333 44.334 40 71.001l66 65c18.667 18 18.334 37 -0.999023 57l-123 123c-10.667 11.333 -16 23 -16 35s5.33301 23.333 16 34l278 279c11.333 11.333 22.666 17 33.999 17c12 0 23.667 -5.66699 35 -17l123 -122c20 -20 39.667 -20 59 0z" />
    <glyph glyph-name="plus" unicode="+" horiz-adv-x="1049" 
d="M852 1043c62.667 0 94 -21 94 -63v-435c0 -42 -31.333 -63 -94 -63h-86c-28 0 -44 -16 -48 -48c0 -0.666992 0.333008 -27.667 1 -81v-85c0 -32.667 -16.333 -49 -49 -49h-393c-32.667 0 -49 16.333 -49 49v171c0 28.667 -14.667 43 -44 43h-89c-62.667 0 -94 21 -94 63
v435c0 42 31.333 63 94 63h93c26 0 39.333 13.667 40 41v87v86c0 33.333 16.333 50 49 50h393c32.667 0 49 -16.667 49 -50v-172c0 -28 14.333 -42 43 -42h90z" />
    <glyph glyph-name="comma" unicode="," horiz-adv-x="834" 
d="M552 441c37.333 0 53.6641 -16.332 48.9971 -48.999l-69 -465c-5.33301 -36.667 -21.666 -55 -48.999 -55l-205 -1c-35.333 0 -57.666 14 -66.999 42c-1.33301 2 -2 4 -2 6c0 5.33301 13 24.666 39 57.999c12.667 16 5.33398 24 -21.999 24h-68
c-32.667 0 -49 16.333 -49 49v342c0 32.667 16.333 49 49 49h394z" />
    <glyph glyph-name="hyphen" unicode="-" horiz-adv-x="606" 
d="M441 862c32.667 0 49 -20.667 49 -62v-436c0 -41.333 -16.333 -62 -49 -62h-393c-32 0 -48 20.667 -48 62v436c0 41.333 16 62 48 62h393z" />
    <glyph glyph-name="hyphen" unicode="&#x2010;" horiz-adv-x="606" 
d="M441 862c32.667 0 49 -20.667 49 -62v-436c0 -41.333 -16.333 -62 -49 -62h-393c-32 0 -48 20.667 -48 62v436c0 41.333 16 62 48 62h393z" />
    <glyph glyph-name="period" unicode="." horiz-adv-x="834" 
d="M541 441c33.333 0 50 -16.333 50 -49v-342c0 -32.667 -16.667 -49 -50 -49h-393c-32.667 0 -49 16.333 -49 49v342c0 32.667 16.333 49 49 49h393z" />
    <glyph glyph-name="slash" unicode="/" horiz-adv-x="1024" 
d="M1126 1548c21.333 0 32 -7.00098 32 -21.001c0 -7.33301 -2.66699 -16.666 -8 -27.999l-730 -1450c-16.667 -32.667 -41.334 -49 -74.001 -49h-393c-21.333 -0 -32 7.33301 -32 22c0 7.33301 2.66699 16.333 8 27l730 1450c16.667 32.667 41.334 49 74.001 49h393z" />
    <glyph glyph-name="zero" unicode="0" horiz-adv-x="1173" 
d="M627 1602c228 0 422.333 -80.333 583 -241s241 -355 241 -583c0 -228.667 -80.167 -423.167 -240.5 -583.5s-354.833 -240.5 -583.5 -240.5c-229.333 0 -424 80 -584 240s-240 354.667 -240 584c0 228.667 80.167 423.167 240.5 583.5s354.833 240.5 583.5 240.5z
M627 1104c-90 0 -166.833 -31.833 -230.5 -95.5s-95.5 -140.5 -95.5 -230.5c0 -90.667 31.667 -167.667 95 -231s140.333 -95 231 -95c90 0 166.833 31.833 230.5 95.5s95.5 140.5 95.5 230.5s-31.833 166.833 -95.5 230.5s-140.5 95.5 -230.5 95.5z" />
    <glyph glyph-name="one" unicode="1" horiz-adv-x="633" 
d="M487 1548c33.333 0 50 -16.335 50 -49.002v-1449c0 -32.667 -16.667 -49 -50 -49h-393c-32.667 0 -49 16.333 -49 49v1000c0 24.667 -11.667 40.667 -35 48c-2.66699 0.666992 -33 9.33398 -91 26.001c-86 24.667 -129 46 -129 64c0 10.667 5.33301 23.334 16 38.001
l147 200c59.333 81.333 106.333 122 141 122h393z" />
    <glyph glyph-name="two" unicode="2" horiz-adv-x="1200" 
d="M51 0c-32.667 0 -49.002 14.666 -49.002 43.999c0.666992 50 0.333984 118.667 -0.999023 206c-1.33301 98 -2 166.667 -2 206c0 167.333 130 293 390 377l220 61c114 36.667 171 71.667 171 105c0 26.667 -18.667 47.334 -56 62.001c-28.667 11.333 -58.667 17 -90 17
c-33.333 0 -62.666 -5.66699 -87.999 -17l-67 -30c-7.33301 -3.33301 -27.333 0.666992 -60 12l-332 117c-32.667 11.333 -49 29.666 -49 54.999c0 14.667 5.66699 31 17 49c56.667 92 141 163 253 213c101.333 45.333 210.333 68 327 68c156 0 296.333 -40 421 -120
c144 -91.333 216 -210.666 216 -357.999c0 -197.333 -133 -341 -399 -431l-218 -61c-113.333 -36 -167.333 -69 -162 -99c4 -21.333 15.667 -34 35 -38c3.33301 -0.666992 22.333 -1 57 -1h566c32.667 0 49 -14.667 49 -44v-349c0 -29.333 -16.333 -44 -49 -44h-1100z" />
    <glyph glyph-name="three" unicode="3" horiz-adv-x="1200" 
d="M1033 740c86.667 -80 130.001 -172.667 130.001 -278c0 -144 -73 -260 -219 -348c-124.667 -75.333 -263.667 -113 -417 -113c-114.667 0 -222 21.333 -322 64c-111.333 47.333 -196 114.666 -254 201.999c-18 26.667 -8.66699 49 28 67l377 119
c34 10.667 66.333 9.66699 97 -3c17.333 -7.33301 41.666 -11 72.999 -11s61.333 5.66699 90 17c37.333 14.667 56 35.334 56 62.001c0 50.667 -47 76 -141 76h-172c-34.667 0 -57.667 5.16699 -69 15.5s-17 32.5 -17 66.5
c-0.666992 17.333 -1.33398 43.666 -2.00098 78.999c0.666992 18 0.666992 44.333 0 79c-3.33301 60.667 23.334 91 80.001 91h175c31.333 0 61.333 5.66699 90 17c37.333 14.667 56 35.334 56 62.001s-18.667 47.334 -56 62.001c-28.667 11.333 -58.667 17 -90 17
c-29.333 0 -57 -5.33301 -83 -16c-31.333 -13.333 -53 -21 -65 -23c-4 -0.666992 -18 2.66602 -42 9.99902l-374 115c-28 5.33301 -42 17 -42 35c0 8 3 17.667 9 29c53.333 102.667 138 182.334 254 239.001c105.333 52 220 78 344 78c156 0 296.333 -39.667 421 -119
c143.333 -91.333 215 -211 215 -359c0 -112.667 -43.333 -208.667 -130 -288c-16 -14.667 -16 -29.334 0 -44.001z" />
    <glyph glyph-name="four" unicode="4" horiz-adv-x="1289" 
d="M1148 1548c32.667 0 48.999 -16.333 48.999 -49v-1450c0 -32.667 -16.333 -49 -49 -49h-393c-32.667 -0 -49 16.333 -49 49v391l-631 -2c-103.333 0 -139.666 72 -108.999 216l178 835c8 38 33.333 57 76 57h357c30 -5.33301 44.667 -25 44 -59l-132 -614l217 1v625
c0 32.667 16.333 49 49 49h393z" />
    <glyph glyph-name="five" unicode="5" horiz-adv-x="1122" 
d="M490 1082c-25.333 0 -39.334 -25.6699 -42.001 -77.0029c-1.33301 -22 -3 -38.333 -5 -49c-2 -13.333 0 -23 6 -29s16 -8.33301 30 -7c7.33301 0.666992 20.666 1 39.999 1c152.667 0 291.334 -37.667 416.001 -113c146.667 -88 220 -203.667 220 -347
c0 -144 -73 -260 -219 -348c-124.667 -75.333 -263.667 -113 -417 -113c-191.333 0 -350 51.667 -476 155c-22.667 18.667 -34 35 -34 49s11.667 27.333 35 40l347 190c22.667 12.667 46.334 16 71.001 10c16.667 -4 35.334 -6 56.001 -6c31.333 0 61 5.66699 89 17
c37.333 14.667 56 35.334 56 62.001s-18.667 47.334 -56 62.001c-28 11.333 -57.667 17 -89 17c-48 0 -86.667 -10.333 -116 -31c-15.333 -15.333 -38 -19 -68 -11l-342 89c-32.667 8.66699 -46.667 33.334 -42 74.001l39 392l42 393c3.33301 32.667 20.666 49 51.999 49
h989c28 0 42 -15.667 42 -47v-376c0 -30.667 -14 -46 -42 -46h-582z" />
    <glyph glyph-name="six" unicode="6" horiz-adv-x="1125" 
d="M559 926c154 0 293.666 -37.665 418.999 -112.998c146.667 -88.667 220 -205.334 220 -350.001s-73.333 -261 -220 -349c-124.667 -75.333 -264.334 -113 -419.001 -113c-156 0 -294 37.667 -414 113c-136 86 -211 202.333 -225 349c-30.667 321.333 29 586 179 794
c76 106 178.667 187.667 308 245c92 40.667 198.667 61 320 61c50.667 0 103.334 -3.66699 158.001 -11c30.667 -4 52 -8 64 -12c25.333 -8.66699 40.333 -22.334 45 -41.001l83 -331c2.66699 -9.33301 4 -18 4 -26c0 -30 -19.667 -44 -59 -42
c-29.333 1.33301 -57.666 2 -84.999 2c-222.667 0 -378.334 -42.333 -467.001 -127c-7.33301 -6.66699 -10 -17.667 -8 -33c1.33301 -15.333 14 -21.333 38 -18c10.667 1.33301 30.334 2 59.001 2zM557.999 599.002c-31.333 0 -61.333 -5.66699 -90 -17
c-37.333 -14.667 -56 -35.334 -56 -62.001s18.667 -47.334 56 -62.001c28.667 -11.333 58.667 -17 90 -17s61.333 5.66699 90 17c37.333 14.667 56 35.334 56 62.001s-18.667 47.334 -56 62.001c-28.667 11.333 -58.667 17 -90 17z" />
    <glyph glyph-name="seven" unicode="7" horiz-adv-x="1011" 
d="M1169 1549c23.333 0 35.001 -8.66699 35.001 -26c0 -6.66699 -1.66699 -14.667 -5 -24l-571 -1449c-12.667 -32.667 -35.334 -49 -68.001 -49h-394c-23.333 0 -35 8.33301 -35 25c0 6.66699 1.66699 14.667 5 24l408 1035h-507c-24.667 0 -37 15.667 -37 47v371
c-0 30.667 12.333 46 37 46h1132z" />
    <glyph glyph-name="eight" unicode="8" horiz-adv-x="1175" 
d="M1079 760c102 -86.667 153 -186.667 153 -300c0 -144 -73 -260 -219 -348c-124.667 -74.667 -263.667 -112 -417 -112c-154 -0 -293 37.333 -417 112c-146 87.333 -219 203.333 -219 348c0 113.333 51 213.333 153 300c-102 88 -153 191.333 -153 310
c0 148 71.667 267.667 215 359c124.667 79.333 265 119 421 119s296.333 -39.667 421 -119c143.333 -91.333 215 -211 215 -359c0 -118.667 -51 -222 -153 -310zM596 593c-97.333 0 -146 -25.333 -146 -76c0 -26.667 18.667 -47.667 56 -63c28 -11.333 57.667 -17 89 -17
s61.333 5.66699 90 17c37.333 15.333 56 36.333 56 63c0 50.667 -48.333 76 -145 76zM595 1082c-30.667 0 -60.332 -5.66699 -88.999 -17c-37.333 -15.333 -56 -36 -56 -62c0 -26.667 18.667 -47.334 56 -62.001c28 -11.333 57.667 -17 89 -17s61.333 5.66699 90 17
c37.333 14.667 56 35.334 56 62.001c0 26 -19 46.667 -57 62c-28.667 11.333 -58.334 17 -89.001 17z" />
    <glyph glyph-name="nine" unicode="9" horiz-adv-x="1125" 
d="M552 636c-154 0 -293.666 37.668 -418.999 113.001c-146 88.667 -219 205.334 -219 350.001s73.333 261 220 349c124.667 75.333 264 113 418 113c156 0 294 -37.667 414 -113c136.667 -86 211.667 -202.333 225 -349c30 -323.333 -29.667 -588.333 -179 -795
c-76.667 -106 -179.667 -187 -309 -243c-92 -40.667 -199.333 -61 -322 -61c-49.333 0 -101 3.33301 -155 10c-34 4 -55.667 7.66699 -65 11c-24.667 8 -39.667 22 -45 42l-83 331c-2.66699 9.33301 -4 17.666 -4 24.999c0 30.667 20 45 60 43c30 -1.33301 58.667 -2 86 -2
c222.667 0 378 42.333 466 127c6 6 8.66699 16.667 8 32c-1.33301 15.333 -14 21.666 -38 18.999c-12.667 -1.33301 -32.334 -2 -59.001 -2zM553.001 963.001c31.333 0 61.333 5.66699 90 17c37.333 14.667 56 35.334 56 62.001s-18.667 47.334 -56 62.001
c-28.667 11.333 -58.667 17 -90 17s-61.333 -5.66699 -90 -17c-37.333 -14.667 -56 -35.334 -56 -62.001s18.667 -47.334 56 -62.001c28.667 -11.333 58.667 -17 90 -17z" />
    <glyph glyph-name="colon" unicode=":" horiz-adv-x="834" 
d="M551 441c33.333 0 50 -16.333 50 -49v-342c0 -32.667 -16.667 -49 -50 -49h-393c-32.667 0 -49 16.333 -49 49v342c0 32.667 16.333 49 49 49h393zM551 1046c33.333 0 50 -16.333 50 -49v-341c0 -33.333 -16.667 -50 -50 -50h-393c-32.667 0 -49 16.667 -49 50v341
c0 32.667 16.333 49 49 49h393z" />
    <glyph glyph-name="semicolon" unicode=";" horiz-adv-x="834" 
d="M546 1046c33.333 0 50 -16.333 50 -49v-341c0 -33.333 -16.667 -50 -50 -50h-393c-32.667 0 -49 16.667 -49 50v341c0 32.667 16.333 49 49 49h393zM557 441c37.333 0 53.6641 -16.332 48.9971 -48.999l-69 -465c-5.33301 -36.667 -21.666 -55 -48.999 -55l-205 -1
c-35.333 0 -57.666 14 -66.999 42c-1.33301 2 -2 4 -2 6c0 5.33301 13 24.666 39 57.999c12.667 16 5.33398 24 -21.999 24h-68c-32.667 0 -49 16.333 -49 49v342c0 32.667 16.333 49 49 49h394z" />
    <glyph glyph-name="equal" unicode="=" horiz-adv-x="910" 
d="M714 741c52.667 0 79 -16 79 -48v-336c0 -32.667 -26.333 -49 -79 -49h-632c-52.667 0 -79 16.333 -79 49v336c0 32 26.333 48 79 48h632zM714 1279c52.667 0 79 -16.333 79 -49v-335c0 -32.667 -26.333 -49 -79 -49h-632c-52.667 0 -79 16.333 -79 49v335
c0 32.667 26.333 49 79 49h632z" />
    <glyph glyph-name="question" unicode="?" horiz-adv-x="986" 
d="M623 440c32.667 0 49 -16.667 49 -50v-341c0 -32.667 -16.333 -49 -49 -49h-394c-32.667 -0 -49 16.333 -49 49v341c0 33.333 16.333 50 49 50h394zM463 927c68.667 11.333 103.001 36.666 103.001 75.999c0 26 -18.667 46.667 -56 62
c-28.667 11.333 -58.334 17 -89.001 17c-34.667 0 -65.334 -6 -92.001 -18c-16.667 -7.33301 -33.334 -14 -50.001 -20c-15.333 -5.33301 -36.666 2.33398 -63.999 23.001l-275 208c-10 4.66699 -22.333 14.667 -37 30c-4.66699 4.66699 -7 10 -7 16
c0 13.333 11 30.333 33 51c126 117.333 290.333 176 493 176c156 0 296.333 -39.667 421 -119c143.333 -91.333 215 -211 215 -359c0 -212.667 -99.333 -351.667 -298 -417c-74 -24.667 -161.667 -40 -263 -46c-41.333 -2.66699 -130.666 -4 -267.999 -4
c-32.667 0 -49 16.333 -49 49v226c0 32.667 16.333 49 49 49h234z" />
    <glyph glyph-name="at" unicode="@" horiz-adv-x="1757" 
d="M812 1607c242.667 0 449.169 -85.1709 619.502 -255.504s255.5 -376.833 255.5 -619.5c0 -144 -32.333 -279 -97 -405c-66.667 -130 -159 -233.667 -277 -311c-19.333 -12.667 -37.333 -19 -54 -19c-30 0 -55.667 20 -77 60c-31.333 60.667 -70 128.334 -116 203.001
c-16.667 16.667 -39 24.667 -67 24c-60.667 -1.33301 -122.334 -1.66602 -185.001 -0.999023l-186 1c-28.667 0 -50.334 -11 -65.001 -33c-8 -12 -17 -31.333 -27 -58c-10 -20.667 -19.333 -32.667 -28 -36c-4.66699 -2 -20.667 -3 -48 -3
c-59.333 0.666992 -103.333 1.66699 -132 3l-125 4c-28 0.666992 -55 12.334 -81 35.001c-123.333 156.667 -185 335.334 -185 536.001c0 242.667 85.167 449.167 255.5 619.5s376.833 255.5 619.5 255.5zM907.002 1291l488 -965.001c14.667 -21.333 27.334 -32 38.001 -32
c12.667 0 25.667 10.333 39 31c76.667 122.667 115 258.334 115 407.001c0 214.667 -75.5 397.5 -226.5 548.5s-333.833 226.5 -548.5 226.5c-215.333 0 -398.333 -75.333 -549 -226s-226 -333.667 -226 -549c0 -152 43 -294.333 129 -427c5.33301 -8 14.666 -14 27.999 -18
c14.667 -4.66699 28.667 6 42 32l492 972c19.333 38 49 57 89 57c40.667 0 70.667 -19 90 -57zM872.002 645.995c-14 23.333 -27.002 49.333 -39.002 78c-5.33301 6 -10.666 9 -15.999 9s-10.666 -3 -15.999 -9c-10 -18 -23.667 -45.333 -41 -82
c-6 -14 -1.66699 -21.667 13 -23h90c16.667 0 19.667 9 9 27z" />
    <glyph glyph-name="A" unicode="A" horiz-adv-x="1141" 
d="M704 1482l719 -1422c4.66699 -9.33301 7 -17.333 7 -24c0 -22.667 -23.667 -34 -71 -34h-310c-36 0 -58.667 2 -68 6c-12 6 -25.667 23 -41 51c-22.667 42 -59.667 62.333 -111 61c-94.667 -2 -178.667 -2.33301 -252 -1c-83.333 0.666992 -166.666 1 -249.999 1
c-46 0 -78 -19.333 -96 -58c-14 -30 -26 -47.833 -36 -53.5s-32.667 -8.5 -68 -8.5l-159 1c-34.667 0 -87.334 0.333008 -158.001 1c-48 0 -72 11.667 -72 35c0 8 2.66699 17.333 8 28l715 1417c26 51.333 66.333 77 121 77c55.333 0 96 -25.667 122 -77zM656 608
l-53.001 107c-7.33301 8 -14.333 12 -21 12c-7.33301 0 -14.333 -4.33301 -21 -13c-13.333 -24.667 -31.666 -61 -54.999 -109c-8 -18.667 -2.66699 -29.334 16 -32.001h122c10 0 15 5 15 15c0.666992 8.66699 -0.333008 15.334 -3 20.001z" />
    <glyph glyph-name="B" unicode="B" horiz-adv-x="1314" 
d="M49 1548l854 -2.00098c100.667 0 182.334 -48.667 245.001 -146c54.667 -85.333 82 -181 82 -287v0c0 -113.333 -30 -212.333 -90 -297c115.333 -83.333 173 -210.666 173 -381.999v0c0 -106 -27.333 -201.667 -82 -287c-62.667 -97.333 -144.334 -146 -245.001 -146
l-937 -1c-32.667 -0 -49 16.333 -49 49v1450c-0 32.667 16.333 49 49 49zM492 522.999c2 -42.667 22.667 -63.999 62 -63.999h169c32.667 0 49 31.333 49 94s-16.333 94 -49 94l-171 1c-38.667 0 -58.667 -20 -60 -60c-0.666992 -24.667 -0.666992 -46.334 0 -65.001z
M492 1026c0 -13.333 4.66504 -27 13.998 -41c10.667 -16 22.334 -24 35.001 -24h55c28.667 0.666992 47.334 1 56.001 1c32.667 0 49 21.333 49 64c0 42 -16.333 63 -49 63l-112 -1c-32 0 -48 -20.667 -48 -62z" />
    <glyph glyph-name="C" unicode="C" horiz-adv-x="1323" 
d="M654 1600c145.333 0 281.501 -36.166 408.501 -108.499s227.5 -171.166 301.5 -296.499c23.333 -38.667 29.666 -64.334 18.999 -77.001c-8.66699 -10.667 -22.667 -20.334 -42 -29.001l-318 -141c-44.667 -20 -71 -24.667 -79 -14c-6.66699 7.33301 -17 20.333 -31 39
c-67.333 85.333 -153.666 128 -258.999 128c-90 0 -166.833 -31.667 -230.5 -95s-95.5 -140 -95.5 -230c0 -90.667 31.667 -167.667 95 -231s140.333 -95 231 -95c113.333 0 202.666 46.667 267.999 140c24 34.667 42.333 51 55 49c13.333 -2 29 -7 47 -15l316 -137
c11.333 -4.66699 27 -12.667 47 -24c18 -10 16.333 -35 -5 -75c-72 -134.667 -173.167 -241 -303.5 -319s-271.833 -117 -424.5 -117c-229.333 0 -423.833 80 -583.5 240s-239.5 354.667 -239.5 584c0 228.667 80 423.167 240 583.5s354.333 240.5 583 240.5z" />
    <glyph glyph-name="D" unicode="D" horiz-adv-x="1125" 
d="M442 1547c235.333 0 435.668 -69.333 601.001 -208c174.667 -147.333 262 -336.333 262 -567c0 -228 -89.333 -416 -268 -564c-168.667 -138.667 -369.334 -208 -602.001 -208h-386c-32.667 0 -49 16 -49 48v1450c-0 32.667 16.333 49 49 49h393zM491.002 537
c0 -43.333 17.334 -64.999 52.001 -64.999c8 0 17 1.33301 27 4c69.333 18.667 126.166 55.167 170.499 109.5s66.5 116.5 66.5 186.5c0 69.333 -22.667 131.666 -68 186.999c-44.667 53.333 -101 89 -169 107c-52.667 14 -79 -3.33301 -79 -52v-477z" />
    <glyph glyph-name="E" unicode="E" 
d="M57 1548l1059 2c36.667 0 55 -15.667 55 -47v-368c0 -30.667 -18.333 -46 -55 -46h-563c-38 0 -56 -18 -54 -54s20 -54 54 -54h506c34.667 0 52 -14.333 52 -43v-340c0 -28 -17.333 -42 -52 -42h-512c-31.333 0 -47 -19.333 -47 -58c-0.666992 -36 15 -54 47 -54h569
c36.667 0 55 -14.667 55 -44v-350c0 -29.333 -18.333 -44 -55 -44c-118 0 -294.667 -1 -530 -3s-411.666 -3 -528.999 -3c-32.667 -0 -49 16.333 -49 49v1450c0 32.667 16.333 49 49 49z" />
    <glyph glyph-name="F" unicode="F" 
d="M50 1548l1059 2c36.667 0 55 -15.667 55 -47v-368c0 -30.667 -18.333 -46 -55 -46h-563c-36 -6 -54 -27 -54 -63v-100c0 -39.333 19.667 -59 59 -59h501c36 0 54 -18.667 54 -56v-448c0 -37.333 -18 -56 -54 -56h-510c-33.333 -4 -50 -20.667 -50 -50v-208
c0 -32.667 -16.333 -49 -49 -49h-393c-33.333 -0 -50 16.333 -50 49v1450c0 32.667 16.667 49 50 49z" />
    <glyph glyph-name="G" unicode="G" horiz-adv-x="1530" 
d="M678 1600c145.333 0 281.167 -36.167 407.5 -108.5s226.833 -171.166 301.5 -296.499c23.333 -39.333 30 -65 20 -77c-8.66699 -10.667 -22.667 -20.334 -42 -29.001l-319 -141c-44 -19.333 -70 -24 -78 -14c-6.66699 7.33301 -17 20.333 -31 39
c-67.333 85.333 -153.666 128 -258.999 128c-90.667 0 -167.667 -31.667 -231 -95s-95 -140.333 -95 -231s31.667 -167.5 95 -230.5s140.333 -94.5 231 -94.5c108.667 0 199 48 271 144c0.666992 1.33301 1.66699 3 3 5v217c0 32.667 16.667 49 50 49h393
c32.667 0 49 -16.333 49 -49v-891c0 -32.667 -16.333 -49 -49 -49h-393c-33.333 0 -50 16.333 -50 49c0 38 -6.66699 57.667 -20 59c-12.667 1.33301 -23.667 0.666016 -33 -2.00098c-72.667 -20 -146.334 -30 -221.001 -30c-228.667 0 -423 80 -583 240
s-240 354.333 -240 583s80 423.334 240 584.001s354.333 241 583 241z" />
    <glyph glyph-name="H" unicode="H" 
d="M49 1544l393 0.000976562c32.667 0 49 -18.667 49 -56v-584c0 -25.333 9.33301 -38 28 -38h128c17.333 5.33301 26 18.666 26 39.999v582c0 37.333 16.333 56 49 56h392c32.667 0 49 -18.667 49 -56v-1432c0 -37.333 -16.333 -56 -49 -56h-392
c-32.667 0 -49 18.667 -49 56v227c-2 15.333 -10.667 23 -26 23h-137c-12.667 -4.66699 -19 -13.667 -19 -27v-223c0 -37.333 -16.333 -56 -49 -56h-393c-32.667 0 -49 18.667 -49 56v1432c-0 37.333 16.333 56 49 56z" />
    <glyph glyph-name="I" unicode="I" horiz-adv-x="606" 
d="M443 1548c32.667 0 49 -16.333 49 -49v-1450c0 -32.667 -16.333 -49 -49 -49h-394c-32.667 -0 -49 16.333 -49 49v1450c-0 32.667 16.333 49 49 49h394z" />
    <glyph glyph-name="J" unicode="J" horiz-adv-x="1112" 
d="M-143 824c4 30.667 21.668 46 53.001 46h191h192c36 0 54 -18.333 54 -55v-234c0 -92 30.667 -138 92 -138c38 0 63.333 14.667 76 44c3.33301 8 9.66602 39.333 18.999 94v921c0 11.333 5.33301 22.5 16 33.5s21.667 16.5 33 16.5h393c11.333 0 22.333 -5.5 33 -16.5
s16 -22.167 16 -33.5v-927c0 -157.333 -58.167 -292.5 -174.5 -405.5s-253.5 -169.5 -411.5 -169.5c-160 0 -297 56.5 -411 169.5s-171 249.5 -171 409.5v245z" />
    <glyph glyph-name="K" unicode="K" horiz-adv-x="1112" 
d="M442 1548c33.333 0 49.998 -16.333 49.998 -49v-238c0 -32 3.66699 -48 11 -48c6 0.666992 15 13.334 27 38.001l114 248c15.333 32.667 42 49 80 49h394c27.333 0 33.333 -16.333 18 -49l-307 -663c-16.667 -36 -16 -66.333 2 -91l323 -696
c6 -12.667 2 -24.334 -12 -35.001c-11.333 -9.33301 -24 -14 -38 -14h-393c-17.333 -0 -33.666 16.333 -48.999 49l-138 298c-7.33301 16 -14.666 22.333 -21.999 19c-6.66699 -3.33301 -10 -14 -10 -32v-143v-142c0 -32.667 -16.667 -49 -50 -49h-393
c-32.667 -0 -49 16.333 -49 49v1450c-0 32.667 16.333 49 49 49h393z" />
    <glyph glyph-name="L" unicode="L" horiz-adv-x="872" 
d="M443 1548c32.667 0 49 -16.333 49 -49v-956c0 -34 15.667 -51 47 -51h408c32.667 0 49 -16.333 49 -49v-394c0 -32.667 -16.333 -49 -49 -49h-897c-33.333 -0 -50 16.333 -50 49v1450c0 32.667 16.667 49 50 49h393z" />
    <glyph glyph-name="M" unicode="M" horiz-adv-x="1415" 
d="M526 1480l90.001 -211l90 -211c8 -18 15.667 -18 23 0l180 423c22 51.333 56 77 102 77s80 -26 102 -78l604 -1421c4 -9.33301 6 -17.666 6 -24.999c0 -22.667 -19.667 -34 -59 -34c-66 0 -131.667 -0.333008 -197 -1
c-66.667 -0.666992 -132.334 -0.333984 -197.001 0.999023c-30 0.666992 -53.5 19.667 -70.5 57l-74.5 168c-29.333 66 -55 120.667 -77 164c-8.66699 17.333 -18 26 -28 26c-8.66699 0 -17.667 -6.66699 -27 -20l-234 -350c-13.333 -20.667 -28 -31 -44 -31
c-15.333 0 -31 11 -47 33l-226 337c-12.667 18 -24.667 27 -36 27s-21.333 -9.33301 -30 -28l-150 -324c-10.667 -24 -20.667 -39.333 -30 -46c-10.667 -8.66699 -28.667 -13 -54 -13h-367c-40.667 -0 -61 12.333 -61 37c0 7.33301 2 16 6 26l602 1418
c22 51.333 56 77 102 77s80 -26 102 -78z" />
    <glyph glyph-name="N" unicode="N" 
d="M1099 1549c32.667 0 48.999 -16.333 48.999 -49v-1465c0 -28.667 -9.33301 -43 -28 -43c-4 0 -8.33301 0.666992 -13 2c-26.667 7.33301 -46 15 -58 23l-526 338c-18 11.333 -27 8 -27 -10c-0.666992 -58 -0.666992 -105.667 0 -143v-143c0 -38.667 -20 -58 -60 -58h-193
h-193c-33.333 0 -50 16.333 -50 49v1458c0 30.667 12.667 44 38 40c26 -4.66699 43.333 -10 52 -16l513 -349c12.667 -8.66699 22.667 -13 30 -13c13.333 0 20 12 20 36v294c0 34 19.333 50.333 58 49c72 -2 136.667 -2.33301 194 -1c64.667 0.666992 129.334 1 194.001 1z
" />
    <glyph glyph-name="O" unicode="O" horiz-adv-x="1248" 
d="M627 1602c228 0 422.333 -80.333 583 -241s241 -355 241 -583c0 -228.667 -80.167 -423.167 -240.5 -583.5s-354.833 -240.5 -583.5 -240.5c-229.333 0 -424 80 -584 240s-240 354.667 -240 584c0 228.667 80.167 423.167 240.5 583.5s354.833 240.5 583.5 240.5z
M627 1104c-90 0 -166.833 -31.833 -230.5 -95.5s-95.5 -140.5 -95.5 -230.5c0 -90.667 31.667 -167.667 95 -231s140.333 -95 231 -95c90 0 166.833 31.833 230.5 95.5s95.5 140.5 95.5 230.5s-31.833 166.833 -95.5 230.5s-140.5 95.5 -230.5 95.5z" />
    <glyph glyph-name="P" unicode="P" horiz-adv-x="1112" 
d="M558 1085h-12.999c-32.667 0 -49.334 -15.333 -50.001 -46v-64v-63c0 -30.667 14.667 -46 44 -46h19c74 0 134.333 8 181 24c40 14 60 44 60 90s-20 76 -60 90c-30.667 10 -91 15 -181 15zM46.001 1548l656 4c165.333 1.33301 301 -49.5 407 -152.5
s159 -237.167 159 -402.5c0 -164 -53.167 -297.333 -159.5 -400s-241.833 -154 -406.5 -154h-164c-30.667 0 -46 -14.333 -46 -43v-351c0 -32.667 -16.333 -49 -49 -49h-393c-32.667 -0 -49 16.333 -49 49v1450c0 32.667 15 49 45 49z" />
    <glyph glyph-name="Q" unicode="Q" horiz-adv-x="1277" 
d="M639 1602c228 0 422.335 -80.502 583.002 -241.502s241 -355.5 241 -583.5c0 -185.333 -56.667 -352 -170 -500c-18.667 -24 -21.334 -49 -8.00098 -75l141 -276c5.33301 -11.333 8 -20.666 8 -27.999c0 -14 -10.667 -21 -32 -21h-393c-31.333 0 -56 16.333 -74 49
c-16.667 30 -30.667 48.333 -42 55c-8.66699 4.66699 -27.334 3.66699 -56.001 -3c-66 -16 -132 -24 -198 -24c-229.333 0 -424 79.833 -584 239.5s-240 354.167 -240 583.5c0 228.667 80.167 423.334 240.5 584.001s354.833 241 583.5 241zM933.002 668.998
c9.33301 0 15 3.66895 17 11.002c10 32.667 15 65 15 97c0 90 -31.833 166.833 -95.5 230.5s-140.5 95.5 -230.5 95.5c-90.667 0 -167.667 -31.667 -231 -95s-95 -140.333 -95 -231c0 -86 29 -160.167 87 -222.5s129.667 -96.5 215 -102.5c26 -2 39 4 39 18
c0 5.33301 -2 11.666 -6 18.999l-67 131c-6 11.333 -9 20.666 -9 27.999c0 14 11 21 33 21h328z" />
    <glyph glyph-name="R" unicode="R" horiz-adv-x="1112" 
d="M557 1085l-12.999 0.000976562c-32 0 -48.333 -15.333 -49 -46v-64v-63c0 -32.667 14.333 -48.334 43 -47.001l19 1c87.333 4.66699 147.666 12.667 180.999 24c40 14 60.333 44 61 90c0 45.333 -20.333 75 -61 89c-32.667 10.667 -93 16 -181 16zM543.001 372.001
c-6.66699 10.667 -16.666 17.001 -29.999 19.001c-12 1.33301 -19 -8.33398 -21 -29.001v-313c0 -32.667 -16.333 -49 -49 -49h-394c-32.667 0 -49 16.333 -49 49v1450c0 32.667 15.333 49 46 49l656 4c139.333 0.666992 258.666 -36.666 357.999 -111.999
c102 -77.333 167.333 -183.333 196 -318c8.66699 -42 13 -83.667 13 -125c0 -73.333 -14 -147 -42 -221c-43.333 -116.667 -120.333 -204.334 -231 -263.001c-16.667 -8.66699 -25 -19.667 -25 -33c0 -11.333 6 -24.333 18 -39l257 -392c8.66699 -12.667 13 -23 13 -31
c0 -12 -10 -18 -30 -18h-393c-32.667 0 -59.667 16.333 -81 49z" />
    <glyph glyph-name="S" unicode="S" horiz-adv-x="1150" 
d="M1053 761c102.667 -83.333 154 -183.334 154 -300.001c0 -144 -73 -260 -219 -348c-125.333 -75.333 -264.666 -113 -417.999 -113c-109.333 0 -212.333 19 -309 57c-108.667 43.333 -192 104.666 -250 183.999c-10.667 14.667 -12.334 29 -5.00098 43
c7.33301 12.667 17.666 22.334 30.999 29.001l344 162c18.667 8.66699 47.667 5.66699 87 -9c48 -18.667 81.667 -28 101 -28c31.333 0 61.333 5.66699 90 17c37.333 15.333 56 36.333 56 63c0 52 -48.333 77.333 -145 76c-60.667 -0.666992 -119 4.33301 -175 15
c-117.333 22.667 -220 73.334 -308 152.001c-102 90.667 -153 194.334 -153 311.001c0 147.333 71.667 266.666 215 357.999c124 80 264.333 120 421 120c122 0 236 -24.667 342 -74c120.667 -56.667 205 -134.667 253 -234c5.33301 -10.667 8 -20.667 8 -30
c0 -21.333 -15 -35.666 -45 -42.999l-362 -133c-26.667 -10 -44.667 -11.333 -54 -4l-31 22c-27.333 19.333 -64.666 29 -111.999 29c-30.667 0 -60.334 -5.66699 -89.001 -17c-37.333 -15.333 -56 -36 -56 -62c0 -26.667 18.667 -47.334 56 -62.001
c27.333 -11.333 57 -17 89 -17c74.667 -0.666992 159.334 -16.667 254.001 -48c98 -32 174.667 -70.667 230 -116z" />
    <glyph glyph-name="T" unicode="T" horiz-adv-x="1163" 
d="M60 1546h1055c40 0 60 -15.333 60 -46v-369c0 -30.667 -20 -46 -60 -46h-239c-28.667 0 -43 -16 -43 -48v-988c0 -32.667 -16.333 -49 -49 -49h-393c-32.667 -0 -49 16.333 -49 49v988c0 32 -14 48 -42 48h-240c-40 0 -60 15.333 -60 46v369c0 30.667 20 46 60 46z" />
    <glyph glyph-name="U" unicode="U" 
d="M443 1552c32.667 0 49 -16.332 49 -48.999v-922c6.66699 -54.667 11.667 -86.334 15 -95.001c12 -28.667 37.667 -43 77 -43c47.333 0 75 23 83 69l12 69v921c0 11.333 5.33301 22.5 16 33.5s21.667 16.5 33 16.5h393c11.333 0 22.333 -5.5 33 -16.5s16 -22.167 16 -33.5
v-927c0 -156.667 -58.333 -291.667 -175 -405s-253.667 -170 -411 -170c-160 0 -297.333 56.5 -412 169.5s-172 249.5 -172 409.5v924c-0 32.667 16.333 49 49 49h394z" />
    <glyph glyph-name="V" unicode="V" horiz-adv-x="935" 
d="M610 70c-26 -50.667 -66.333 -76 -121 -76c-55.333 0 -96 25.333 -122 76l-507 1417c-4.66699 10 -7 19 -7 27c0 24 23.667 36 71 36l177 1c39.333 0 99 0.333008 179 1c23.333 0 40.666 -11.333 51.999 -34l128 -382c9.33301 -26.667 18 -40 26 -40
c8.66699 0 17.334 14.667 26.001 44l54 197l53 197c6 11.333 15.667 17 29 17l370 -1c46.667 0 70 -11.333 70 -34c0 -6.66699 -2.33301 -14.667 -7 -24z" />
    <glyph glyph-name="W" unicode="W" horiz-adv-x="1415" 
d="M910 76l-180.001 422.001c-8 18.667 -16 18.667 -24 0l-179 -422c-21.333 -50.667 -55.333 -76 -102 -76s-80.667 25.333 -102 76l-603 1421c-4 10 -6 18.667 -6 26c0 22 19.667 33 59 33c66 0 131.333 0.666992 196 2c70 0.666992 135.333 0 196 -2
c30.667 -1.33301 54.334 -20.666 71.001 -57.999l74 -166c20 -46.667 45.667 -101.334 77 -164.001c9.33301 -18.667 18.666 -28 27.999 -28c8.66699 0 17.667 7 27 21l235 350c14 20.667 28.667 31 44 31s31 -11 47 -33l112 -169c19.333 -30 57.333 -86 114 -168
c12.667 -18.667 24.334 -28 35.001 -28c11.333 0 21.333 9.66699 30 29l150 324c7.33301 16 16.333 31 27 45c8.66699 11.333 28 16.666 58 15.999c85.333 -2 146.333 -2.66699 183 -2h185c40 -0.666992 60 -13 60 -37c0 -7.33301 -2 -16 -6 -26l-603 -1417
c-21.333 -50.667 -55.333 -76 -102 -76c-46 -0 -79.667 25.333 -101 76z" />
    <glyph glyph-name="X" unicode="X" horiz-adv-x="1061" 
d="M388 1548c32.667 0 56.334 -16.334 71.001 -49.001l57 -127c7.33301 -16 14.666 -24 21.999 -24c10.667 0 28.334 29 53.001 87l28 64c14.667 32.667 38.334 49 71.001 49h393c22.667 0 34 -8 34 -24c0 -6.66699 -2.33301 -15 -7 -25l-309 -688
c-10.667 -24 -10 -50 2 -78l153 -342l154 -342c4.66699 -10 7 -18.333 7 -25c0 -16 -11.333 -24 -34 -24h-393c-32.667 0 -56.334 16.333 -71.001 49l-61 136c-6 14 -12.333 21 -19 21s-13 -7 -19 -21l-30 -69l-31 -67c-14.667 -32.667 -38.334 -49 -71.001 -49h-392
c-22.667 0 -34 8 -34 24c0 6.66699 2.33301 15 7 25l312 697c8 18.667 8 37.334 0 56.001l-312 697c-4.66699 10 -6.66699 18.333 -6 25c0 16 11 24 33 24h392z" />
    <glyph glyph-name="Y" unicode="Y" horiz-adv-x="960" 
d="M244 760c0 12.667 -2.33496 24 -7.00195 34l-159 352l-159 353c-4.66699 10 -7 18.333 -7 25c0 16 11.667 24 35 24h392c32.667 0 56.334 -16.333 71.001 -49l60 -134c6.66699 -14.667 13.334 -22 20.001 -22c6 0 12.667 7.66699 20 23l30 66l30 67
c14 32.667 37.667 49 71 49h393c22.667 0 34 -8 34 -24c0 -6.66699 -2.33301 -15 -7 -25l-315 -698c-6.66699 -14.667 -10 -31 -10 -49v-703c0 -32.667 -16.333 -49 -49 -49h-394c-32.667 -0 -49 16.333 -49 49v711z" />
    <glyph glyph-name="Z" unicode="Z" horiz-adv-x="1087" 
d="M0 1492c0 32.667 16.3359 49.001 49.0029 49.001h1049c28 0 42 -8.66699 42 -26c0 -4 -0.666992 -8.66699 -2 -14c-8.66699 -25.333 -16.334 -45 -23.001 -59l-465 -972c-8.66699 -18 -5.33398 -27 9.99902 -27c34 -0.666992 95.333 -0.666992 184 0h184
c20 0 34.667 -4.83301 44 -14.5s14 -24.5 14 -44.5v-167v-168c0 -32.667 -16.333 -49 -49 -49h-1059c-30.667 0 -43.667 12.333 -39 37c5.33301 24 10.666 41.333 15.999 52l463 936c5.33301 11.333 8 20.666 8 27.999c0 14.667 -10 22 -30 22h-347
c-32.667 0 -49 19.333 -49 58v359z" />
    <glyph glyph-name="backslash" unicode="\" horiz-adv-x="1024" 
d="M-47 1548l393 -0.000976562c32.667 0 57.334 -16.333 74.001 -49l730 -1450c5.33301 -11.333 8 -20.666 8 -27.999c0 -14 -10.667 -21 -32 -21h-393c-32.667 -0 -57.334 16.333 -74.001 49l-730 1450c-5.33301 10.667 -8 19.667 -8 27c0 14.667 10.667 22 32 22z" />
    <glyph glyph-name="underscore" unicode="_" horiz-adv-x="1163" 
d="M1009 0c32.667 0 49 -20.667 49 -62v-435c0 -42 -16.333 -63 -49 -63h-961c-32 0 -48 21 -48 63v435c0 41.333 16 62 48 62h961z" />
    <glyph glyph-name="a" unicode="a" horiz-adv-x="1150" 
d="M704 1482l719.002 -1422c4.66699 -9.33301 7 -17.333 7 -24c0 -22.667 -23.667 -34 -71 -34h-310c-36 0 -58.667 2 -68 6c-12 6 -25.667 23 -41 51c-22.667 42 -59.667 62.333 -111 61c-94.667 -2 -178.334 -2.33301 -251.001 -1c-84 0.666992 -167.667 1 -251 1
c-46 0 -78 -19.333 -96 -58c-14 -30 -26 -47.833 -36 -53.5s-32.667 -8.5 -68 -8.5l-159 1c-34.667 0 -87.334 0.333008 -158.001 1c-48 0 -72 11.667 -72 35c0 8 2.66699 17.333 8 28l715 1417c26 51.333 66.667 77 122 77c54.667 0 95 -25.667 121 -77zM656.002 608
l-53.001 107c-7.33301 8 -14.333 12 -21 12c-7.33301 0 -14.333 -4.33301 -21 -13c-13.333 -24.667 -31.666 -61 -54.999 -109c-8 -18.667 -2.66699 -29.334 16 -32.001h122c10 0 15.333 5 16 15c0 8.66699 -1.33301 15.334 -4 20.001z" />
    <glyph glyph-name="b" unicode="b" horiz-adv-x="1314" 
d="M49 1548l854 -2.00098c100.667 0 182.334 -48.667 245.001 -146c54.667 -85.333 82 -181 82 -287v0c0 -113.333 -30 -212.333 -90 -297c115.333 -83.333 173 -210.666 173 -381.999v0c0 -106 -27.333 -201.667 -82 -287c-62.667 -97.333 -144.334 -146 -245.001 -146
l-937 -1c-32.667 -0 -49 16.333 -49 49v1450c-0 32.667 16.333 49 49 49zM492 522.999c2 -42.667 22.667 -63.999 62 -63.999h169c32.667 0 49 31.333 49 94s-16.333 94 -49 94l-171 1c-38.667 0 -58.667 -20 -60 -60c-0.666992 -24.667 -0.666992 -46.334 0 -65.001z
M492 1026c0 -13.333 4.66504 -27 13.998 -41c10.667 -16 22.334 -24 35.001 -24h55c28.667 0.666992 47.334 1 56.001 1c32.667 0 49 21.333 49 64c0 42 -16.333 63 -49 63l-112 -1c-32 0 -48 -20.667 -48 -62z" />
    <glyph glyph-name="c" unicode="c" horiz-adv-x="1323" 
d="M654 1600c145.333 0 281.501 -36.166 408.501 -108.499s227.5 -171.166 301.5 -296.499c23.333 -38.667 29.666 -64.334 18.999 -77.001c-8.66699 -10.667 -22.667 -20.334 -42 -29.001l-318 -141c-44.667 -20 -71 -24.667 -79 -14c-6.66699 7.33301 -17 20.333 -31 39
c-67.333 85.333 -153.666 128 -258.999 128c-90 0 -166.833 -31.667 -230.5 -95s-95.5 -140 -95.5 -230c0 -90.667 31.667 -167.667 95 -231s140.333 -95 231 -95c113.333 0 202.666 46.667 267.999 140c24 34.667 42.333 51 55 49c13.333 -2 29 -7 47 -15l316 -137
c11.333 -5.33301 27 -13.333 47 -24c18 -10 16.333 -35 -5 -75c-72 -134.667 -173.167 -241 -303.5 -319s-271.833 -117 -424.5 -117c-229.333 0 -423.833 80 -583.5 240s-239.5 354.667 -239.5 584c0 228.667 80 423.167 240 583.5s354.333 240.5 583 240.5z" />
    <glyph glyph-name="d" unicode="d" horiz-adv-x="1125" 
d="M442 1547c235.333 0 435.668 -69.333 601.001 -208c174.667 -147.333 262 -336.333 262 -567c0 -228 -89.333 -416 -268 -564c-168.667 -138.667 -369.334 -208 -602.001 -208h-386c-32.667 0 -49 16 -49 48v1450c-0 32.667 16.333 49 49 49h393zM491.002 537
c0 -43.333 17.334 -64.999 52.001 -64.999c8 0 17 1.33301 27 4c69.333 18.667 126.166 55.167 170.499 109.5s66.5 116.5 66.5 186.5c0 69.333 -22.667 131.666 -68 186.999c-44.667 53.333 -101 89 -169 107c-52.667 14 -79 -3.33301 -79 -52v-477z" />
    <glyph glyph-name="e" unicode="e" 
d="M49 1548l1059 2c36.667 0 55 -15.667 55 -47v-368c0 -30.667 -18.333 -46 -55 -46h-563c-38 0 -56 -18 -54 -54s20 -54 54 -54h506c34.667 0 52 -14.333 52 -43v-340c0 -28 -17.333 -42 -52 -42h-512c-31.333 0 -47 -19.333 -47 -58c-0.666992 -36 15 -54 47 -54h569
c36.667 0 55 -14.667 55 -44v-350c0 -29.333 -18.333 -44 -55 -44c-118 0 -294.667 -1 -530 -3s-411.666 -3 -528.999 -3c-32.667 -0 -49 16.333 -49 49v1450c-0 32.667 16.333 49 49 49z" />
    <glyph glyph-name="f" unicode="f" 
d="M50 1548l1059 2c36.667 0 55 -15.667 55 -47v-368c0 -30.667 -18.333 -46 -55 -46h-563c-36 -6 -54 -27 -54 -63v-100c0 -39.333 19.667 -59 59 -59h501c36 0 54 -18.667 54 -56v-448c0 -37.333 -18 -56 -54 -56h-510c-33.333 -4 -50 -20.667 -50 -50v-208
c0 -32.667 -16.333 -49 -49 -49h-393c-33.333 -0 -50 16.333 -50 49v1450c0 32.667 16.667 49 50 49z" />
    <glyph glyph-name="g" unicode="g" horiz-adv-x="1530" 
d="M670 1600c145.333 0 281.167 -36.167 407.5 -108.5s226.833 -171.166 301.5 -296.499c23.333 -39.333 30 -65 20 -77c-8.66699 -10.667 -22.667 -20.334 -42 -29.001l-319 -141c-44 -19.333 -70 -24 -78 -14c-6.66699 7.33301 -17 20.333 -31 39
c-67.333 85.333 -153.666 128 -258.999 128c-90.667 0 -167.667 -31.667 -231 -95s-95 -140.333 -95 -231s31.667 -167.5 95 -230.5s140.333 -94.5 231 -94.5c108.667 0 199 48 271 144c0.666992 1.33301 1.66699 3 3 5v217c0 32.667 16.667 49 50 49h393
c32.667 0 49 -16.333 49 -49v-891c0 -32.667 -16.333 -49 -49 -49h-393c-33.333 0 -50 16.333 -50 49c0 38 -6.66699 57.667 -20 59c-12.667 1.33301 -23.667 0.666016 -33 -2.00098c-72.667 -20 -146.334 -30 -221.001 -30c-228.667 0 -423 80 -583 240
s-240 354.333 -240 583s80 423.334 240 584.001s354.333 241 583 241z" />
    <glyph glyph-name="h" unicode="h" 
d="M49 1544l393 0.000976562c32.667 0 49 -18.667 49 -56v-584c0 -25.333 9.33301 -38 28 -38h128c17.333 5.33301 26 18.666 26 39.999v582c0 37.333 16.333 56 49 56h392c32.667 0 49 -18.667 49 -56v-1432c0 -37.333 -16.333 -56 -49 -56h-392
c-32.667 0 -49 18.667 -49 56v227c-2 15.333 -10.667 23 -26 23h-137c-12.667 -4.66699 -19 -13.667 -19 -27v-223c0 -37.333 -16.333 -56 -49 -56h-393c-32.667 0 -49 18.667 -49 56v1432c-0 37.333 16.333 56 49 56z" />
    <glyph glyph-name="i" unicode="i" horiz-adv-x="606" 
d="M443 1548c32.667 0 49 -16.333 49 -49v-1450c0 -32.667 -16.333 -49 -49 -49h-394c-32.667 -0 -49 16.333 -49 49v1450c-0 32.667 16.333 49 49 49h394z" />
    <glyph glyph-name="j" unicode="j" horiz-adv-x="1112" 
d="M-143 824c4 30.667 21.668 46 53.001 46h383c36 0 54 -18.333 54 -55v-234c0 -92 30.667 -138 92 -138c38 0 63.333 14.667 76 44c3.33301 8 9.66602 39.333 18.999 94v921c0 11.333 5.33301 22.5 16 33.5s21.667 16.5 33 16.5h393c11.333 0 22.333 -5.5 33 -16.5
s16 -22.167 16 -33.5v-927c0 -157.333 -58.167 -292.5 -174.5 -405.5s-253.5 -169.5 -411.5 -169.5c-160 0 -297 56.5 -411 169.5s-171 249.5 -171 409.5v245z" />
    <glyph glyph-name="k" unicode="k" horiz-adv-x="1112" 
d="M442 1548c33.333 0 49.998 -16.333 49.998 -49v-238c0 -32 3.66699 -48 11 -48c6 0.666992 15 13.334 27 38.001l114 248c15.333 32.667 42 49 80 49h394c27.333 0 33.333 -16.333 18 -49l-307 -663c-16.667 -36 -16 -66.333 2 -91l323 -696
c6 -12.667 2 -24.334 -12 -35.001c-11.333 -9.33301 -24 -14 -38 -14h-393c-17.333 -0 -33.666 16.333 -48.999 49l-138 298c-7.33301 16 -14.666 22.333 -21.999 19c-6.66699 -3.33301 -10 -14 -10 -32v-143v-142c0 -32.667 -16.667 -49 -50 -49h-393
c-32.667 -0 -49 16.333 -49 49v1450c-0 32.667 16.333 49 49 49h393z" />
    <glyph glyph-name="l" unicode="l" horiz-adv-x="872" 
d="M443 1548c32.667 0 49 -16.333 49 -49v-956c0 -34 15.667 -51 47 -51h408c32.667 0 49 -16.333 49 -49v-394c0 -32.667 -16.333 -49 -49 -49h-897c-33.333 -0 -50 16.333 -50 49v1450c0 32.667 16.667 49 50 49h393z" />
    <glyph glyph-name="m" unicode="m" horiz-adv-x="1415" 
d="M526 1480l90.002 -211l90 -211c8 -18 15.667 -18 23 0l180 423c22 51.333 56 77 102 77s80 -26 102 -78l604 -1421c4 -9.33301 6 -17.666 6 -24.999c0 -22.667 -19.667 -34 -59 -34c-66 0 -131.667 -0.333008 -197 -1
c-66.667 -0.666992 -132.334 -0.333984 -197.001 0.999023c-30.667 0.666992 -54.334 19.667 -71.001 57l-74 168c-29.333 66 -55 120.667 -77 164c-8.66699 17.333 -18 26 -28 26c-8.66699 0 -17.667 -6.66699 -27 -20l-234 -350c-14 -20.667 -28.667 -31 -44 -31
c-16 0 -31.667 11 -47 33l-226 337c-12.667 18 -24.667 27 -36 27s-21.333 -9.33301 -30 -28l-150 -324c-11.333 -24 -21.333 -39.333 -30 -46c-11.333 -8.66699 -29.333 -13 -54 -13h-367c-40.667 -0 -61 12.333 -61 37c0 7.33301 2 16 6 26l602 1418
c22 51.333 56 77 102 77s80 -26 102 -78z" />
    <glyph glyph-name="n" unicode="n" 
d="M1099 1549c32.667 0 48.999 -16.333 48.999 -49v-1465c0 -28.667 -9.33301 -43 -28 -43c-4 0 -8.33301 0.666992 -13 2c-26.667 7.33301 -46 15 -58 23l-526 338c-18 11.333 -27 8 -27 -10v-286c0 -38.667 -20 -58 -60 -58h-386c-33.333 0 -50 16.333 -50 49v1458
c0 30.667 12.667 44 38 40c26 -4.66699 43.333 -10 52 -16l513 -349c12.667 -8.66699 22.667 -13 30 -13c13.333 0 20 12 20 36v294c0 34 19.333 50.333 58 49c72 -2 136.667 -2.33301 194 -1c64.667 0.666992 129.334 1 194.001 1z" />
    <glyph glyph-name="o" unicode="o" horiz-adv-x="1248" 
d="M627 1602c228 0 422.333 -80.333 583 -241s241 -355 241 -583c0 -228.667 -80.167 -423.167 -240.5 -583.5s-354.833 -240.5 -583.5 -240.5c-229.333 0 -424 80 -584 240s-240 354.667 -240 584c0 228.667 80.167 423.167 240.5 583.5s354.833 240.5 583.5 240.5z
M627 1104c-90 0 -166.833 -31.833 -230.5 -95.5s-95.5 -140.5 -95.5 -230.5c0 -90.667 31.667 -167.667 95 -231s140.333 -95 231 -95c90 0 166.833 31.833 230.5 95.5s95.5 140.5 95.5 230.5s-31.833 166.833 -95.5 230.5s-140.5 95.5 -230.5 95.5z" />
    <glyph glyph-name="p" unicode="p" horiz-adv-x="1112" 
d="M558 1085h-12.999c-32.667 0 -49.334 -15.333 -50.001 -46v-64v-63c0 -30.667 14.667 -46 44 -46h19c74 0 134.333 8 181 24c40 14 60 44 60 90s-20 76 -60 90c-30.667 10 -91 15 -181 15zM46.001 1548l656 4c165.333 1.33301 301 -49.5 407 -152.5
s159 -237.167 159 -402.5c0 -164 -53.167 -297.333 -159.5 -400s-241.833 -154 -406.5 -154h-164c-30.667 0 -46 -14.333 -46 -43v-351c0 -32.667 -16.333 -49 -49 -49h-393c-32.667 -0 -49 16.333 -49 49v1450c0 32.667 15 49 45 49z" />
    <glyph glyph-name="q" unicode="q" horiz-adv-x="1277" 
d="M639 1602c228 0 422.335 -80.502 583.002 -241.502s241 -355.5 241 -583.5c0 -185.333 -56.667 -352 -170 -500c-18.667 -24 -21.334 -49 -8.00098 -75l141 -276c5.33301 -11.333 8 -20.666 8 -27.999c0 -14 -10.667 -21 -32 -21h-393c-31.333 0 -56 16.333 -74 49
c-16.667 30 -30.667 48.333 -42 55c-8.66699 4.66699 -27.334 3.66699 -56.001 -3c-66 -16 -132 -24 -198 -24c-229.333 0 -424 79.833 -584 239.5s-240 354.167 -240 583.5c0 228.667 80.167 423.334 240.5 584.001s354.833 241 583.5 241zM933.002 668.998
c9.33301 0 15 3.66895 17 11.002c10 32.667 15 65 15 97c0 90 -31.833 166.833 -95.5 230.5s-140.5 95.5 -230.5 95.5c-90.667 0 -167.667 -31.667 -231 -95s-95 -140.333 -95 -231c0 -86 29 -160.167 87 -222.5s129.667 -96.5 215 -102.5c26 -2 39 4 39 18
c0 5.33301 -2 11.666 -6 18.999l-67 131c-6 11.333 -9 20.666 -9 27.999c0 14 11 21 33 21h328z" />
    <glyph glyph-name="r" unicode="r" horiz-adv-x="1112" 
d="M557 1085l-12.999 0.000976562c-32 0 -48.333 -15.333 -49 -46v-64v-63c0 -32.667 14.333 -48.334 43 -47.001l19 1c87.333 4.66699 147.666 12.667 180.999 24c40 14 60.333 44 61 90c0 45.333 -20.333 75 -61 89c-32.667 10.667 -93 16 -181 16zM543.001 372.001
c-6.66699 10.667 -16.666 17.001 -29.999 19.001c-12 1.33301 -19 -8.33398 -21 -29.001v-313c0 -32.667 -16.333 -49 -49 -49h-394c-32.667 0 -49 16.333 -49 49v1450c0 32.667 15.333 49 46 49l656 4c139.333 0.666992 258.666 -36.666 357.999 -111.999
c102 -77.333 167.333 -183.333 196 -318c8.66699 -42 13 -83.667 13 -125c0 -73.333 -14 -147 -42 -221c-43.333 -116.667 -120.333 -204.334 -231 -263.001c-16.667 -8.66699 -25 -19.667 -25 -33c0 -11.333 6 -24.333 18 -39l257 -392c8.66699 -12.667 13 -23 13 -31
c0 -12 -10 -18 -30 -18h-393c-32.667 0 -59.667 16.333 -81 49z" />
    <glyph glyph-name="s" unicode="s" horiz-adv-x="1150" 
d="M1053 761c102.667 -83.333 154 -183.334 154 -300.001c0 -144 -73 -260 -219 -348c-125.333 -75.333 -264.666 -113 -417.999 -113c-109.333 0 -212.333 19 -309 57c-108.667 43.333 -192 104.666 -250 183.999c-10.667 14.667 -12.334 29 -5.00098 43
c7.33301 12.667 17.666 22.334 30.999 29.001l344 162c18.667 8.66699 47.667 5.66699 87 -9c48 -18.667 81.667 -28 101 -28c31.333 0 61.333 5.66699 90 17c37.333 15.333 56 36.333 56 63c0 52 -48.333 77.333 -145 76c-60.667 -0.666992 -119 4.33301 -175 15
c-117.333 22.667 -220 73.334 -308 152.001c-102 90.667 -153 194.334 -153 311.001c0 147.333 71.667 266.666 215 357.999c124 80 264.333 120 421 120c122 0 236 -24.667 342 -74c120.667 -56.667 205 -134.667 253 -234c5.33301 -10.667 8 -20.667 8 -30
c0 -21.333 -15 -35.666 -45 -42.999l-362 -133c-26.667 -10 -44.667 -11.333 -54 -4l-31 22c-27.333 19.333 -64.666 29 -111.999 29c-30.667 0 -60.334 -5.66699 -89.001 -17c-37.333 -15.333 -56 -36 -56 -62c0 -26.667 18.667 -47.334 56 -62.001
c27.333 -11.333 57 -17 89 -17c74.667 -0.666992 159.334 -16.667 254.001 -48c98 -32 174.667 -70.667 230 -116z" />
    <glyph glyph-name="t" unicode="t" horiz-adv-x="1163" 
d="M60 1546h1055c40 0 60 -15.333 60 -46v-369c0 -30.667 -20 -46 -60 -46h-239c-28.667 0 -43 -16 -43 -48v-988c0 -32.667 -16.333 -49 -49 -49h-393c-32.667 -0 -49 16.333 -49 49v988c0 32 -14 48 -42 48h-240c-40 0 -60 15.333 -60 46v369c0 30.667 20 46 60 46z" />
    <glyph glyph-name="u" unicode="u" 
d="M443 1552c32.667 0 49 -16.332 49 -48.999v-922c6.66699 -54.667 11.667 -86.334 15 -95.001c12 -28.667 37.667 -43 77 -43c47.333 0 75 23 83 69l12 69v921c0 11.333 5.33301 22.5 16 33.5s21.667 16.5 33 16.5h393c11.333 0 22.333 -5.5 33 -16.5s16 -22.167 16 -33.5
v-927c0 -156.667 -58.333 -291.667 -175 -405s-253.667 -170 -411 -170c-160 0 -297.333 56.5 -412 169.5s-172 249.5 -172 409.5v924c-0 32.667 16.333 49 49 49h394z" />
    <glyph glyph-name="v" unicode="v" horiz-adv-x="935" 
d="M610 70c-26 -50.667 -66.332 -76 -120.999 -76c-55.333 0 -96 25.333 -122 76l-507 1417c-4.66699 10 -7 19 -7 27c0 24 23.667 36 71 36l177 1c39.333 0 99 0.333008 179 1c23.333 0 40.666 -11.333 51.999 -34l128 -382c9.33301 -26.667 18 -40 26 -40
c8.66699 0 17.334 14.667 26.001 44l54 197l53 197c6 11.333 15.667 17 29 17l370 -1c47.333 0 70.666 -11.333 69.999 -34c0 -6.66699 -2.33301 -14.667 -7 -24z" />
    <glyph glyph-name="w" unicode="w" horiz-adv-x="1415" 
d="M910 76l-180.001 422.001c-8 18.667 -16 18.667 -24 0l-179 -422c-21.333 -50.667 -55.333 -76 -102 -76s-80.667 25.333 -102 76l-603 1421c-4 10 -6 18.667 -6 26c0 22 19.667 33 59 33c66 0 131.333 0.666992 196 2c70 0.666992 135.333 0 196 -2
c30.667 -1.33301 54.334 -20.666 71.001 -57.999l74 -166c20 -46.667 45.667 -101.334 77 -164.001c9.33301 -18.667 18.666 -28 27.999 -28c8.66699 0 17.667 7 27 21l235 350c14 20.667 28.667 31 44 31s31 -11 47 -33l112 -169c19.333 -30 57.333 -86 114 -168
c12.667 -18.667 24.334 -28 35.001 -28c11.333 0 21.333 9.66699 30 29l150 324c7.33301 16 16.333 31 27 45c8.66699 11.333 28 16.666 58 15.999c85.333 -2 146.333 -2.66699 183 -2h185c40 -0.666992 60 -13 60 -37c0 -7.33301 -2 -16 -6 -26l-603 -1417
c-21.333 -50.667 -55.333 -76 -102 -76c-46 -0 -79.667 25.333 -101 76z" />
    <glyph glyph-name="x" unicode="x" horiz-adv-x="1061" 
d="M388 1548c32.667 0 56.334 -16.334 71.001 -49.001l57 -127c7.33301 -16 14.666 -24 21.999 -24c10.667 0 28.334 29 53.001 87l28 64c14.667 32.667 38.334 49 71.001 49h393c22.667 0 34 -8 34 -24c0 -6.66699 -2.33301 -15 -7 -25l-309 -688
c-10.667 -24 -10 -50 2 -78l153 -342l154 -342c4.66699 -10 7 -18.333 7 -25c0 -16 -11.333 -24 -34 -24h-393c-32.667 0 -56.334 16.333 -71.001 49l-61 136c-6 14 -12.333 21 -19 21s-13 -7 -19 -21l-30 -69l-31 -67c-14.667 -32.667 -38.334 -49 -71.001 -49h-392
c-22.667 0 -34 8 -34 24c0 6.66699 2.33301 15 7 25l312 697c8 18.667 8 37.334 0 56.001l-312 697c-4.66699 10 -7 18.333 -7 25c0 16 11.333 24 34 24h392z" />
    <glyph glyph-name="y" unicode="y" horiz-adv-x="960" 
d="M244 760c0 12.667 -2.33496 24 -7.00195 34l-159 352l-159 353c-4.66699 10 -7 18.333 -7 25c0 16 11.667 24 35 24h392c32.667 0 56.334 -16.333 71.001 -49l60 -134c6.66699 -14.667 13.334 -22 20.001 -22c6 0 12.667 7.66699 20 23l30 66l30 67
c14 32.667 37.667 49 71 49h393c22.667 0 34 -8 34 -24c0 -6.66699 -2.33301 -15 -7 -25l-315 -698c-6.66699 -14.667 -10 -31 -10 -49c0.666992 -110 1 -227.333 1 -352l-1 -351c0 -32.667 -16.333 -49 -49 -49h-394c-32.667 -0 -49 16.333 -49 49v711z" />
    <glyph glyph-name="z" unicode="z" horiz-adv-x="1087" 
d="M0 1492c0 32.667 16.335 49.001 49.002 49.001h1049c28 0 42 -8.66699 42 -26c0 -4 -0.666992 -8.66699 -2 -14c-8.66699 -25.333 -16.334 -45 -23.001 -59l-465 -972c-8.66699 -18 -5.33398 -27 9.99902 -27c34 -0.666992 95.333 -0.666992 184 0h184
c20 0 34.667 -4.83301 44 -14.5s14 -24.5 14 -44.5v-167v-168c0 -32.667 -16.333 -49 -49 -49h-1059c-26.667 0 -40 9 -40 27c0 19.333 5.66699 40 17 62l463 936c5.33301 11.333 8 20.666 8 27.999c0 14.667 -10 22 -30 22h-347c-32.667 0 -49 19.333 -49 58v359z" />
    <glyph glyph-name="dieresis" unicode="&#xa8;" horiz-adv-x="2048" 
 />
    <glyph glyph-name="copyright" unicode="&#xa9;" horiz-adv-x="1757" 
d="M832 1655c242 0 448.333 -85.167 619 -255.5s256 -376.5 256 -618.5c0 -242.667 -85.167 -449 -255.5 -619s-376.833 -255 -619.5 -255s-449 85 -619 255s-255 376.333 -255 619s85.167 449 255.5 619s376.5 255 618.5 255zM832 1556
c-215.333 0 -398.333 -75.333 -549 -226s-226 -333.667 -226 -549s75.333 -398.333 226 -549s333.667 -226 549 -226s398.333 75.333 549 226s226 333.667 226 549c0 214.667 -75.5 397.5 -226.5 548.5s-333.833 226.5 -548.5 226.5zM862 1384
c106 0 205.498 -26.665 298.498 -79.998s166.5 -125.666 220.5 -216.999c16.667 -28 21 -46.667 13 -56c-6 -8 -16 -15 -30 -21l-233 -103c-32.667 -14.667 -52 -18 -58 -10c-4.66699 5.33301 -12 14.666 -22 27.999c-50 62.667 -113 94 -189 94
c-66 0 -122.333 -23.167 -169 -69.5s-70 -102.5 -70 -168.5c0 -66.667 23.167 -123.167 69.5 -169.5s102.833 -69.5 169.5 -69.5c82 0 147.333 34.333 196 103c18 25.333 31.333 37.333 40 36s20 -5 34 -11l231 -100c12 -5.33301 23.667 -11 35 -17
c12.667 -8 11.334 -26.667 -3.99902 -56c-52.667 -98 -126.667 -175.667 -222 -233s-198.666 -86 -309.999 -86c-167.333 0 -309.666 58.667 -426.999 176s-176 259.666 -176 426.999s58.667 309.666 176 426.999s259.666 176 426.999 176z" />
    <glyph glyph-name="registered" unicode="&#xae;" horiz-adv-x="1757" 
d="M792 1017l-11 -1.00098c-25.333 0 -38.333 -12 -39 -36v-51v-51c0 -26 11.667 -38.333 35 -37l15 1c74.667 4.66699 123 11 145 19c32 10.667 48 34.334 48 71.001c0 58 -49 87 -147 87c-14.667 0 -30 -0.666992 -46 -2zM829 1650
c242.667 0 449.167 -85.167 619.5 -255.5s255.5 -376.833 255.5 -619.5s-85.167 -449 -255.5 -619s-376.833 -255 -619.5 -255s-449 85 -619 255s-255 376.333 -255 619s85.167 449.167 255.5 619.5s376.5 255.5 618.5 255.5zM829 1550
c-214.667 0 -397.499 -75.502 -548.499 -226.502s-226.5 -333.833 -226.5 -548.5c0 -120.667 26.5 -234.667 79.5 -342s127.167 -197.666 222.5 -270.999c-6.66699 7.33301 -10 16 -10 26v1159c0 26 12.333 39 37 39l524 4c111.333 0.666992 207 -29 287 -89
c81.333 -62 133.333 -147 156 -255c6.66699 -32.667 10 -65.667 10 -99c0 -59.333 -11 -118.666 -33 -177.999c-34.667 -92 -96.334 -162 -185.001 -210c-24 -12.667 -25.667 -31.667 -5 -57l203 -309c176 154 264 348 264 582c0 214.667 -75.5 397.5 -226.5 548.5
s-333.833 226.5 -548.5 226.5zM1285 148.997h-270.001c-26 0 -47.667 13 -65 39l-170 258c-6 8.66699 -13.667 13.667 -23 15c-10 1.33301 -16 -6 -18 -22v-251c0 -26 -13 -39 -39 -39h-314c-8 0 -14 1.33301 -18 4c136.667 -102 290.334 -153 461.001 -153
c166.667 0 318.667 49.667 456 149z" />
    <glyph glyph-name="Ograve" unicode="&#xd2;" horiz-adv-x="2048" 
 />
    <glyph glyph-name="Oacute" unicode="&#xd3;" horiz-adv-x="2048" 
 />
    <glyph glyph-name="Ocircumflex" unicode="&#xd4;" horiz-adv-x="2048" 
 />
    <glyph glyph-name="Otilde" unicode="&#xd5;" horiz-adv-x="2048" 
 />
    <glyph glyph-name="oslash" unicode="&#xf8;" horiz-adv-x="606" 
d="M443 1548c32.667 0 49 -16.333 49 -49v-1450c0 -32.667 -16.333 -49 -49 -49h-394c-32.667 -0 -49 16.333 -49 49v1450c-0 32.667 16.333 49 49 49h394z" />
    <glyph glyph-name="quoteleft" unicode="&#x2018;" horiz-adv-x="834" 
d="M159 1550l392.998 0.000976562c32.667 0 49 -16.333 49 -49v-341c0 -33.333 -16.333 -50 -49 -50h-68c-27.333 0 -34.666 -8.33301 -21.999 -25c25.333 -34 38 -53.333 38 -58c0 -2.66699 -0.333008 -4.66699 -1 -6c-11.333 -30.667 -33.333 -44.334 -66 -41.001h-206
c-27.333 0 -43.666 18.333 -48.999 55l-69 466c-4.66699 32.667 12 49 50 49z" />
    <glyph glyph-name="quoteright" unicode="&#x2019;" horiz-adv-x="834" 
d="M557 1550c37.333 0 53.665 -16.334 48.998 -49.001l-69 -466c-5.33301 -36.667 -21.666 -55 -48.999 -55h-205c-34 -3.33301 -56.333 10.334 -67 41.001c-1.33301 2 -2 4 -2 6c0 4.66699 13 24 39 58c12.667 16.667 5.33398 25 -21.999 25h-68
c-32.667 0 -49 16.667 -49 50v341c0 32.667 16.333 49 49 49h394z" />
    <glyph glyph-name="quotedblleft" unicode="&#x201c;" horiz-adv-x="1403" 
d="M188 1550l392.998 0.000976562c32.667 0 49 -16.333 49 -49v-341c0 -33.333 -16.333 -50 -49 -50h-68c-27.333 0 -34.666 -8.33301 -21.999 -25c25.333 -34 38 -53.333 38 -58c0 -2.66699 -0.333008 -4.66699 -1 -6c-11.333 -30.667 -33.333 -44.334 -66 -41.001h-206
c-27.333 0 -43.666 18.333 -48.999 55l-69 466c-4.66699 32.667 12 49 50 49zM754.998 1550l392.999 0.000976562c32.667 0 49 -16.333 49 -49v-341c0 -33.333 -16.333 -50 -49 -50h-69c-26.667 0 -33.667 -8.33301 -21 -25c25.333 -34 38 -53.333 38 -58
c0 -2.66699 -0.333008 -4.66699 -1 -6c-11.333 -30.667 -33.666 -44.334 -66.999 -41.001h-205c-27.333 0 -43.666 18.333 -48.999 55l-68 466c-4.66699 32.667 11.666 49 48.999 49z" />
    <glyph glyph-name="quotedblright" unicode="&#x201d;" horiz-adv-x="1403" 
d="M1137 1550c38 0 54.665 -16.334 49.998 -49.001l-69 -466c-5.33301 -36.667 -21.666 -55 -48.999 -55h-205c-34 -3.33301 -56.333 10.334 -67 41.001c-1.33301 2 -2 4 -2 6c0 4.66699 13 24 39 58c12.667 16.667 5.33398 25 -21.999 25h-68c-32.667 0 -49 16.667 -49 50
v341c0 32.667 16.333 49 49 49h393zM570.998 1550c37.333 0 53.665 -16.334 48.998 -49.001l-69 -466c-5.33301 -36.667 -21.666 -55 -48.999 -55h-205c-34 -3.33301 -56.333 10.334 -67 41.001c-1.33301 2 -2 4 -2 6c0 4.66699 13 24 39 58
c12.667 16.667 5.33398 25 -21.999 25h-68c-32.667 0 -49 16.667 -49 50v341c0 32.667 16.333 49 49 49h394z" />
    <glyph glyph-name=".null" horiz-adv-x="0" 
 />
    <glyph glyph-name="nonmarkingreturn" horiz-adv-x="550" 
 />
    <glyph glyph-name="glyph100" horiz-adv-x="550" 
 />
  </font>
</defs>
</svg>
